SplineFontDB: 3.2
FontName: KAAlmouziosFthora-Regular
FullName: KA Almouzios Fthora Regular
FamilyName: KA Almouzios Fthora
Weight: Book
Copyright: SIL OPEN FONT LICENSE Version 1.1
Version: 1.000
ItalicAngle: 0
UnderlinePosition: -100
UnderlineWidth: 50
Ascent: 800
Descent: 200
InvalidEm: 0
sfntRevision: 0x00010000
LayerCount: 2
Layer: 0 1 "Back" 1
Layer: 1 1 "Fore" 0
XUID: [1021 596 -667042339 4845419]
StyleMap: 0x0040
FSType: 8
OS2Version: 3
OS2_WeightWidthSlopeOnly: 0
OS2_UseTypoMetrics: 0
CreationTime: 1489463466
ModificationTime: 1588784702
PfmFamily: 81
TTFWeight: 400
TTFWidth: 5
LineGap: 0
VLineGap: 0
Panose: 0 0 5 0 0 0 0 0 0 0
OS2TypoAscent: 800
OS2TypoAOffset: 0
OS2TypoDescent: -200
OS2TypoDOffset: 0
OS2TypoLinegap: 200
OS2WinAscent: 1000
OS2WinAOffset: 0
OS2WinDescent: 200
OS2WinDOffset: 0
HheadAscent: 1000
HheadAOffset: 0
HheadDescent: -200
HheadDOffset: 0
OS2SubXSize: 650
OS2SubYSize: 600
OS2SubXOff: 0
OS2SubYOff: 75
OS2SupXSize: 650
OS2SupYSize: 600
OS2SupXOff: 0
OS2SupYOff: 350
OS2StrikeYSize: 50
OS2StrikeYPos: 300
OS2CapHeight: 700
OS2XHeight: 500
OS2Vendor: 'UKWN'
OS2CodePages: 00000001.00000000
OS2UnicodeRanges: 00000001.00000000.00000000.00000000
DEI: 91125
ShortTable: maxp 16
  1
  0
  81
  128
  10
  128
  3
  1
  2
  30
  6
  0
  100
  0
  1
  1
EndShort
LangName: 1033 "" "" "" "1.000;UKWN;KAAlmouziosFthora-Regular" "" "Version 1.000" "" "" "" "Trevor Bullock" "" "" "" "This Font Software is licensed under the SIL Open Font License, Version 1.1. This license is available with a FAQ at: http://scripts.sil.org/OFL" "http://scripts.sil.org/OFL"
Encoding: UnicodeBmp
Compacted: 1
UnicodeInterp: none
NameList: AGL For New Fonts
DisplaySize: -128
AntiAlias: 1
FitToEm: 0
WinInfo: 0 14 6
BeginChars: 65537 81

StartChar: .notdef
Encoding: 65536 -1 0
Width: 500
GlyphClass: 1
Flags: W
LayerCount: 2
Fore
SplineSet
410 -200 m 1,0,-1
 93 -200 l 1,1,-1
 93 800 l 1,2,-1
 410 800 l 1,3,-1
 410 -200 l 1,0,-1
168 733 m 1,4,-1
 168 700 l 1,5,-1
 233 700 l 1,6,-1
 233 663 l 1,7,-1
 167 663 l 1,8,-1
 167 630 l 1,9,-1
 333 630 l 1,10,-1
 333 663 l 1,11,-1
 267 663 l 1,12,-1
 267 700 l 1,13,-1
 333 700 l 1,14,-1
 333 733 l 1,15,-1
 168 733 l 1,4,-1
167 604 m 1,16,-1
 167 500 l 1,17,-1
 333 500 l 1,18,-1
 333 534 l 1,19,-1
 267 534 l 1,20,-1
 267 604 l 1,21,-1
 167 604 l 1,16,-1
233 534 m 1,22,-1
 200 534 l 1,23,-1
 200 570 l 1,24,-1
 233 570 l 1,25,-1
 233 534 l 1,22,-1
167 473 m 1,26,-1
 167 440 l 1,27,-1
 233 440 l 1,28,-1
 233 403 l 1,29,-1
 167 403 l 1,30,-1
 167 370 l 1,31,-1
 267 370 l 1,32,-1
 267 440 l 1,33,-1
 333 440 l 1,34,-1
 333 473 l 1,35,-1
 167 473 l 1,26,-1
300 413 m 1,36,-1
 300 347 l 1,37,-1
 167 347 l 1,38,-1
 167 313 l 1,39,-1
 333 313 l 1,40,-1
 333 413 l 1,41,-1
 300 413 l 1,36,-1
233 291 m 1,42,-1
 233 235 l 1,43,-1
 267 235 l 1,44,-1
 267 258 l 1,45,-1
 300 258 l 1,46,-1
 300 211 l 1,47,-1
 200 211 l 1,48,-1
 200 291 l 1,49,-1
 167 291 l 1,50,-1
 167 178 l 1,51,-1
 333 178 l 1,52,-1
 333 291 l 1,53,-1
 233 291 l 1,42,-1
167 118 m 1,54,-1
 167 5 l 1,55,-1
 333 5 l 1,56,-1
 333 118 l 1,57,-1
 167 118 l 1,54,-1
300 38 m 1,58,-1
 200 38 l 1,59,-1
 200 85 l 1,60,-1
 300 85 l 1,61,-1
 300 38 l 1,58,-1
167 -18 m 1,62,-1
 167 -51 l 1,63,-1
 237 -51 l 1,64,-1
 167 -98 l 1,65,-1
 167 -131 l 1,66,-1
 333 -131 l 1,67,-1
 333 -98 l 1,68,-1
 231 -98 l 1,69,-1
 301 -51 l 1,70,-1
 333 -51 l 1,71,-1
 333 -18 l 1,72,-1
 167 -18 l 1,62,-1
EndSplineSet
EndChar

StartChar: a
Encoding: 97 97 17
Width: 0
GlyphClass: 1
Flags: W
LayerCount: 2
Fore
SplineSet
-670 494 m 0,1,2
 -656 492 -656 492 -635 503 c 0,3,4
 -609 517 -609 517 -591 544 c 2,5,-1
 -584 555 l 1,6,-1
 -574 553 l 2,7,8
 -560 551 -560 551 -485 551 c 2,9,-1
 -406 551 l 1,10,-1
 -394 556 l 2,11,12
 -368 566 -368 566 -368 577 c 0,13,14
 -368 582 -368 582 -370 587 c 128,-1,15
 -372 592 -372 592 -375 594 c 0,16,17
 -379 596 -379 596 -383 596 c 2,18,-1
 -412 594 l 1,19,-1
 -445 591 l 1,20,-1
 -453 585 l 2,21,22
 -472 573 -472 573 -496 573 c 0,23,24
 -512 573 -512 573 -522 575 c 0,25,26
 -560 582 -560 582 -571 585 c 128,-1,27
 -582 588 -582 588 -580 593 c 0,28,29
 -578 597 -578 597 -578 611 c 0,30,31
 -578 624 -578 624 -582 633 c 0,32,33
 -586 641 -586 641 -594 648.5 c 128,-1,34
 -602 656 -602 656 -609 659 c 0,35,36
 -627 665 -627 665 -643 665 c 256,37,38
 -659 665 -659 665 -677.5 653.5 c 128,-1,39
 -696 642 -696 642 -712 621 c 2,40,-1
 -721 608 l 1,41,-1
 -746 609 l 1,42,-1
 -788 613 l 2,43,44
 -798 615 -798 615 -828 615 c 0,45,46
 -871 615 -871 615 -888 611 c 0,47,48
 -911 607 -911 607 -925.5 600.5 c 128,-1,49
 -940 594 -940 594 -942 587 c 0,50,51
 -944 579 -944 579 -937 567 c 128,-1,52
 -930 555 -930 555 -921 552 c 0,53,54
 -919 551 -919 551 -911 551 c 0,55,56
 -899 551 -899 551 -882 553.5 c 128,-1,57
 -865 556 -865 556 -863 558 c 0,58,59
 -862 561 -862 561 -863 568 c 0,60,61
 -864 571 -864 571 -864 575 c 0,62,63
 -864 582 -864 582 -855 586 c 0,64,65
 -838 593 -838 593 -810 593 c 0,66,67
 -799 593 -799 593 -763 589 c 2,68,-1
 -735 586 l 1,69,-1
 -735 579 l 2,70,71
 -736 570 -736 570 -734 552.5 c 128,-1,72
 -732 535 -732 535 -729 530 c 0,73,74
 -718 508 -718 508 -686 498 c 0,75,0
 -677 494 -677 494 -670 494 c 0,1,2
-626.5 600 m 128,-1,77
 -627 598 -627 598 -630 596 c 0,78,79
 -634 594 -634 594 -636.5 594 c 128,-1,80
 -639 594 -639 594 -643 596 c 0,81,82
 -651 600 -651 600 -665 600 c 2,83,-1
 -680 601 l 1,84,-1
 -679 606 l 2,85,86
 -677 613 -677 613 -674 619.5 c 128,-1,87
 -671 626 -671 626 -668 628 c 0,88,89
 -663 631 -663 631 -655 631 c 256,90,91
 -647 631 -647 631 -641 628 c 0,92,93
 -633 624 -633 624 -630 619.5 c 128,-1,94
 -627 615 -627 615 -626 607 c 0,95,76
 -626 602 -626 602 -626.5 600 c 128,-1,77
-666 537 m 0,97,98
 -672 538 -672 538 -678.5 541 c 128,-1,99
 -685 544 -685 544 -686 548 c 0,100,101
 -688 552 -688 552 -688 561.5 c 128,-1,102
 -688 571 -688 571 -687 572 c 0,103,104
 -680 572 -680 572 -666.5 570 c 128,-1,105
 -653 568 -653 568 -641 566 c 0,106,107
 -637 564 -637 564 -637 562 c 0,108,109
 -637 558 -637 558 -644 549 c 0,110,111
 -651 542 -651 542 -657 540 c 0,112,96
 -660 537 -660 537 -666 537 c 0,97,98
EndSplineSet
EndChar

StartChar: d
Encoding: 100 100 19
Width: 0
GlyphClass: 1
Flags: W
LayerCount: 2
Fore
SplineSet
-258 524 m 0,1,2
 -258 509 -258 509 -263.5 496 c 128,-1,3
 -269 483 -269 483 -277 479 c 0,4,5
 -288 472 -288 472 -311 472 c 0,6,7
 -336 472 -336 472 -348 481 c 0,8,9
 -358 488 -358 488 -358 497 c 0,10,11
 -358 505 -358 505 -350.5 509 c 128,-1,12
 -343 513 -343 513 -331 511 c 0,13,14
 -312 508 -312 508 -312 515 c 256,15,16
 -312 522 -312 522 -328.5 533 c 128,-1,17
 -345 544 -345 544 -370 552 c 0,18,19
 -393 560 -393 560 -502 563 c 1,20,-1
 -502 558 l 2,21,22
 -502 545 -502 545 -509 534 c 0,23,24
 -520 518 -520 518 -540.5 509 c 128,-1,25
 -561 500 -561 500 -585 500 c 0,26,27
 -615 500 -615 500 -642 513 c 0,28,29
 -664 523 -664 523 -695 551 c 0,30,31
 -701 556 -701 556 -705 567 c 1,32,33
 -822 565 -822 565 -866 563 c 0,34,35
 -916 560 -916 560 -937 560 c 0,36,37
 -963 560 -963 560 -968 565 c 0,38,39
 -981 581 -981 581 -912.5 591 c 128,-1,40
 -844 601 -844 601 -708 603 c 1,41,42
 -700 629 -700 629 -674.5 648.5 c 128,-1,43
 -649 668 -649 668 -624 666 c 0,44,45
 -582 663 -582 663 -554 646 c 128,-1,46
 -526 629 -526 629 -512 603 c 1,47,48
 -454 602 -454 602 -424 600 c 128,-1,49
 -394 598 -394 598 -371 593 c 0,50,51
 -325 584 -325 584 -295 569.5 c 128,-1,52
 -265 555 -265 555 -260 540 c 0,53,0
 -258 535 -258 535 -258 524 c 0,1,2
-640 618 m 128,-1,55
 -651 612 -651 612 -657 604 c 1,56,-1
 -615 604 l 1,57,-1
 -575 604 l 1,58,59
 -600 624 -600 624 -619 624 c 0,60,54
 -629 624 -629 624 -640 618 c 128,-1,55
-555 565 m 1,61,62
 -586 566 -586 566 -651 566 c 1,63,64
 -639 553 -639 553 -612 546 c 0,65,66
 -608 545 -608 545 -600 545 c 0,67,68
 -587 545 -587 545 -574.5 550 c 128,-1,69
 -562 555 -562 555 -556 563 c 2,70,-1
 -555 565 l 1,61,62
EndSplineSet
EndChar

StartChar: e
Encoding: 101 101 20
Width: 0
GlyphClass: 1
Flags: W
LayerCount: 2
Fore
SplineSet
-679 294.5 m 128,-1,1
 -685 300 -685 300 -686 318 c 0,2,3
 -688 334 -688 334 -688 341 c 0,4,5
 -688 357 -688 357 -681 409 c 2,6,-1
 -674 466 l 1,7,-1
 -701 483 l 2,8,9
 -725 498 -725 498 -736 515.5 c 128,-1,10
 -747 533 -747 533 -747 557 c 0,11,12
 -747 567 -747 567 -741 580.5 c 128,-1,13
 -735 594 -735 594 -720 620 c 0,14,15
 -695 665 -695 665 -678 688 c 0,16,17
 -667 702 -667 702 -664 715.5 c 128,-1,18
 -661 729 -661 729 -661 754 c 0,19,20
 -661 772 -661 772 -665 816 c 2,21,-1
 -668 854 l 2,22,23
 -669 867 -669 867 -660 876.5 c 128,-1,24
 -651 886 -651 886 -639 886 c 256,25,26
 -627 886 -627 886 -619 878 c 0,27,28
 -612 872 -612 872 -612 847 c 0,29,30
 -612 817 -612 817 -619 767 c 2,31,-1
 -628 705 l 1,32,-1
 -605 692 l 2,33,34
 -560 666 -560 666 -560 619 c 0,35,36
 -561 598 -561 598 -577 562 c 128,-1,37
 -593 526 -593 526 -613 502 c 0,38,39
 -628 483 -628 483 -631.5 473.5 c 128,-1,40
 -635 464 -635 464 -637 436 c 0,41,42
 -639 423 -639 423 -639 400 c 0,43,44
 -639 378 -639 378 -633 326 c 0,45,46
 -632 321 -632 321 -632 313 c 0,47,48
 -632 303 -632 303 -637 298 c 128,-1,49
 -642 293 -642 293 -655 291 c 0,50,0
 -673 289 -673 289 -679 294.5 c 128,-1,1
-631 555.5 m 128,-1,52
 -618 580 -618 580 -618 600 c 0,53,54
 -618 623 -618 623 -634 632 c 0,55,56
 -642 638 -642 638 -651 638 c 0,57,58
 -672 638 -672 638 -691 604 c 0,59,60
 -702 585 -702 585 -702 577 c 0,61,62
 -702 573 -702 573 -698 559 c 0,63,64
 -685 522 -685 522 -657 527 c 0,65,51
 -644 531 -644 531 -631 555.5 c 128,-1,52
EndSplineSet
EndChar

StartChar: f
Encoding: 102 102 21
Width: 0
GlyphClass: 1
Flags: W
LayerCount: 2
Fore
SplineSet
-380 721 m 0,1,2
 -368 721 -368 721 -361 711.5 c 128,-1,3
 -354 702 -354 702 -357 688 c 256,4,5
 -360 674 -360 674 -414 646 c 1,6,7
 -409 636 -409 636 -409 629 c 0,8,9
 -409 623 -409 623 -412 617 c 0,10,11
 -416 609 -416 609 -421.5 604.5 c 128,-1,12
 -427 600 -427 600 -433 600 c 256,13,14
 -439 600 -439 600 -442 604 c 0,15,16
 -444 605 -444 605 -446.5 609.5 c 128,-1,17
 -449 614 -449 614 -451 620 c 2,18,-1
 -454 629 l 1,19,-1
 -495 613 l 1,20,-1
 -495 586 l 2,21,22
 -495 534 -495 534 -536 511 c 0,23,24
 -549 504 -549 504 -574 499.5 c 128,-1,25
 -599 495 -599 495 -626 495 c 0,26,27
 -646 495 -646 495 -664 498 c 0,28,29
 -679 501 -679 501 -688 501 c 256,30,31
 -697 501 -697 501 -707.5 497 c 128,-1,32
 -718 493 -718 493 -733 486 c 0,33,34
 -752 478 -752 478 -768 467 c 128,-1,35
 -784 456 -784 456 -812 435 c 2,36,-1
 -832 420 l 2,37,38
 -848 409 -848 409 -854 409 c 0,39,40
 -863 409 -863 409 -873 422 c 0,41,42
 -882 434 -882 434 -882 442 c 0,43,44
 -882 452 -882 452 -865 462 c 0,45,46
 -850 475 -850 475 -833 484 c 128,-1,47
 -816 493 -816 493 -778 510 c 2,48,-1
 -725 533 l 1,49,-1
 -724 565 l 2,50,51
 -723 618 -723 618 -685 640 c 0,52,53
 -676 646 -676 646 -662.5 648 c 128,-1,54
 -649 650 -649 650 -615 650 c 0,55,56
 -556 650 -556 650 -535 647 c 0,57,58
 -521 646 -521 646 -509.5 648.5 c 128,-1,59
 -498 651 -498 651 -484 658 c 0,60,61
 -481 659 -481 659 -475 663 c 1,62,63
 -484 672 -484 672 -486 675 c 0,64,65
 -496 685 -496 685 -496 690 c 0,66,67
 -496 698 -496 698 -494.5 703 c 128,-1,68
 -493 708 -493 708 -487 712 c 0,69,70
 -481 718 -481 718 -473 718 c 0,71,72
 -468 718 -468 718 -462 715 c 0,73,74
 -457 713 -457 713 -448 702.5 c 128,-1,75
 -439 692 -439 692 -436 688 c 1,76,-1
 -398 715 l 2,77,0
 -389 721 -389 721 -380 721 c 0,1,2
-575 608.5 m 128,-1,79
 -589 617 -589 617 -614 617 c 0,80,81
 -631 617 -631 617 -638.5 614 c 128,-1,82
 -646 611 -646 611 -656 600 c 0,83,84
 -671 582 -671 582 -671 568 c 0,85,86
 -671 557 -671 557 -664 549 c 0,87,88
 -655 540 -655 540 -630 540 c 0,89,90
 -615 540 -615 540 -600.5 543.5 c 128,-1,91
 -586 547 -586 547 -577 554 c 0,92,93
 -561 567 -561 567 -561 584 c 0,94,78
 -561 600 -561 600 -575 608.5 c 128,-1,79
EndSplineSet
EndChar

StartChar: g
Encoding: 103 103 22
Width: 0
GlyphClass: 1
Flags: W
LayerCount: 2
Fore
SplineSet
-346 740 m 0,1,2
 -332 740 -332 740 -323 729.5 c 128,-1,3
 -314 719 -314 719 -318 704 c 0,4,5
 -320 695 -320 695 -355 674.5 c 128,-1,6
 -390 654 -390 654 -440 634 c 2,7,-1
 -498 611 l 1,8,-1
 -498 584 l 2,9,10
 -498 532 -498 532 -539 509 c 0,11,12
 -552 502 -552 502 -577 497.5 c 128,-1,13
 -602 493 -602 493 -629 493 c 0,14,15
 -649 493 -649 493 -667 496 c 0,16,17
 -682 499 -682 499 -689 499 c 256,18,19
 -696 499 -696 499 -707 493.5 c 128,-1,20
 -718 488 -718 488 -726 484 c 2,21,-1
 -741 477 l 1,22,-1
 -735 470 l 2,23,24
 -725 460 -725 460 -725 455 c 0,25,26
 -725 447 -725 447 -726.5 442 c 128,-1,27
 -728 437 -728 437 -734 433 c 0,28,29
 -740 427 -740 427 -748 427 c 0,30,31
 -753 427 -753 427 -759 430 c 0,32,33
 -766 432 -766 432 -781 452 c 1,34,-1
 -816 426 l 2,35,36
 -831 414 -831 414 -838 414 c 0,37,38
 -842 414 -842 414 -846 417.5 c 128,-1,39
 -850 421 -850 421 -855 426 c 0,40,41
 -863 437 -863 437 -863 443 c 0,42,43
 -863 447 -863 447 -858 452.5 c 128,-1,44
 -853 458 -853 458 -845 464 c 0,45,46
 -830 477 -830 477 -803 491 c 1,47,48
 -811 509 -811 509 -811 517 c 0,49,50
 -811 524 -811 524 -809 528 c 0,51,52
 -805 536 -805 536 -799.5 540.5 c 128,-1,53
 -794 545 -794 545 -788 545 c 256,54,55
 -782 545 -782 545 -779 541 c 0,56,57
 -777 540 -777 540 -774.5 535.5 c 128,-1,58
 -772 531 -772 531 -770 525 c 2,59,-1
 -765 511 l 1,60,-1
 -728 531 l 1,61,-1
 -727 563 l 2,62,63
 -726 616 -726 616 -688 638 c 0,64,65
 -679 644 -679 644 -665.5 646 c 128,-1,66
 -652 648 -652 648 -618 648 c 0,67,68
 -559 648 -559 648 -538 645 c 0,69,70
 -524 644 -524 644 -512.5 646.5 c 128,-1,71
 -501 649 -501 649 -487 656 c 0,72,73
 -472 663 -472 663 -432.5 688.5 c 128,-1,74
 -393 714 -393 714 -363 735 c 0,75,0
 -357 740 -357 740 -346 740 c 0,1,2
-578 606.5 m 128,-1,77
 -592 615 -592 615 -617 615 c 0,78,79
 -634 615 -634 615 -641.5 612 c 128,-1,80
 -649 609 -649 609 -659 598 c 0,81,82
 -674 580 -674 580 -674 566 c 0,83,84
 -674 555 -674 555 -667 547 c 0,85,86
 -658 538 -658 538 -633 538 c 0,87,88
 -618 538 -618 538 -603.5 541.5 c 128,-1,89
 -589 545 -589 545 -580 552 c 0,90,91
 -564 565 -564 565 -564 582 c 0,92,76
 -564 598 -564 598 -578 606.5 c 128,-1,77
EndSplineSet
EndChar

StartChar: h
Encoding: 104 104 23
Width: 0
GlyphClass: 1
Flags: W
LayerCount: 2
Fore
SplineSet
-768 438 m 0,1,2
 -758 438 -758 438 -743 445 c 0,3,4
 -724 456 -724 456 -705.5 472.5 c 128,-1,5
 -687 489 -687 489 -676 507 c 1,6,-1
 -672 511 l 1,7,-1
 -661 507 l 2,8,9
 -651 503 -651 503 -634 499.5 c 128,-1,10
 -617 496 -617 496 -607 496 c 0,11,12
 -591 496 -591 496 -575.5 505 c 128,-1,13
 -560 514 -560 514 -553 527 c 0,14,15
 -549 534 -549 534 -549 543 c 0,16,17
 -549 566 -549 566 -550 571.5 c 128,-1,18
 -551 577 -551 577 -559 594 c 0,19,20
 -569 613 -569 613 -568 616 c 0,21,22
 -564 620 -564 620 -555 626.5 c 128,-1,23
 -546 633 -546 633 -538 640 c 0,24,25
 -508 662 -508 662 -499 671 c 0,26,27
 -487 682 -487 682 -487 691 c 0,28,29
 -487 696 -487 696 -490 705 c 0,30,31
 -491 710 -491 710 -499 717.5 c 128,-1,32
 -507 725 -507 725 -510 725 c 0,33,34
 -514 722 -514 722 -525.5 711 c 128,-1,35
 -537 700 -537 700 -552 684 c 2,36,-1
 -593 642 l 1,37,-1
 -603 651 l 2,38,39
 -613 661 -613 661 -623 664 c 128,-1,40
 -633 667 -633 667 -652 667 c 0,41,42
 -672 667 -672 667 -684 663 c 0,43,44
 -694 657 -694 657 -703 647 c 128,-1,45
 -712 637 -712 637 -714 630 c 0,46,47
 -717 621 -717 621 -717 611 c 0,48,49
 -717 583 -717 583 -703 558 c 2,50,-1
 -697 545 l 2,51,52
 -699 541 -699 541 -706 532.5 c 128,-1,53
 -713 524 -713 524 -723 514 c 0,54,55
 -747 489 -747 489 -759 489 c 0,56,57
 -770 489 -770 489 -779 507 c 0,58,59
 -785 520 -785 520 -793 528.5 c 128,-1,60
 -801 537 -801 537 -807 537 c 0,61,62
 -817 537 -817 537 -824.5 524.5 c 128,-1,63
 -832 512 -832 512 -832 498 c 0,64,65
 -832 487 -832 487 -814 466.5 c 128,-1,66
 -796 446 -796 446 -781 441 c 0,67,0
 -774 438 -774 438 -768 438 c 0,1,2
-637 550 m 2,69,-1
 -642 550 l 2,70,71
 -646 550 -646 550 -648.5 551.5 c 128,-1,72
 -651 553 -651 553 -654 556 c 0,73,74
 -661 562 -661 562 -661 572 c 256,75,76
 -661 582 -661 582 -655 594 c 0,77,78
 -650 605 -650 605 -644.5 608.5 c 128,-1,79
 -639 612 -639 612 -627 612 c 0,80,81
 -612 612 -612 612 -608.5 609 c 128,-1,82
 -605 606 -605 606 -605 593 c 0,83,84
 -605 579 -605 579 -609.5 569.5 c 128,-1,85
 -614 560 -614 560 -621 556 c 0,86,68
 -625 552 -625 552 -637 550 c 2,69,-1
EndSplineSet
EndChar

StartChar: i
Encoding: 105 105 24
Width: 0
GlyphClass: 1
Flags: W
LayerCount: 2
Fore
SplineSet
-594 440 m 0,1,2
 -574 440 -574 440 -558 444 c 0,3,4
 -540 452 -540 452 -530 467 c 0,5,6
 -528 472 -528 472 -528 473.5 c 128,-1,7
 -528 475 -528 475 -531 478 c 256,8,9
 -534 481 -534 481 -536 481 c 0,10,11
 -539 481 -539 481 -549 474 c 0,12,13
 -567 467 -567 467 -577 467 c 0,14,15
 -600 467 -600 467 -621 485 c 0,16,17
 -640 501 -640 501 -663 505 c 0,18,19
 -675 507 -675 507 -677 510 c 128,-1,20
 -679 513 -679 513 -680 529 c 2,21,-1
 -681 542 l 1,22,-1
 -666 549 l 2,23,24
 -642 557 -642 557 -621 588 c 0,25,26
 -616 596 -616 596 -614.5 600 c 128,-1,27
 -613 604 -613 604 -613 611 c 0,28,29
 -614 626 -614 626 -626 641.5 c 128,-1,30
 -638 657 -638 657 -651 662 c 0,31,32
 -661 664 -661 664 -671 664 c 2,33,-1
 -706 662 l 1,34,-1
 -731 655 l 2,35,36
 -759 645 -759 645 -771 633 c 128,-1,37
 -783 621 -783 621 -784 603 c 0,38,39
 -785 600 -785 600 -785 595 c 0,40,41
 -785 591 -785 591 -783.5 586.5 c 128,-1,42
 -782 582 -782 582 -781 580 c 0,43,44
 -775 571 -775 571 -764 561.5 c 128,-1,45
 -753 552 -753 552 -744 549 c 0,46,47
 -738 544 -738 544 -724 542 c 0,48,49
 -715 542 -715 542 -713 538 c 2,50,-1
 -714 525 l 2,51,52
 -716 509 -716 509 -723 498.5 c 128,-1,53
 -730 488 -730 488 -747 474 c 0,54,55
 -761 462 -761 462 -764 456.5 c 128,-1,56
 -767 451 -767 451 -764 448 c 256,57,58
 -761 445 -761 445 -757 445 c 0,59,60
 -751 445 -751 445 -742 451 c 0,61,62
 -720 465 -720 465 -693 465 c 0,63,64
 -673 465 -673 465 -659 457 c 0,65,66
 -656 454 -656 454 -646.5 450 c 128,-1,67
 -637 446 -637 446 -633 444 c 0,68,0
 -613 440 -613 440 -594 440 c 0,1,2
-702 571 m 0,70,71
 -717 571 -717 571 -727 587 c 0,72,73
 -731 592 -731 592 -731 600 c 256,74,75
 -731 608 -731 608 -727 613 c 0,76,77
 -724 620 -724 620 -718.5 625.5 c 128,-1,78
 -713 631 -713 631 -705 636 c 2,79,-1
 -694 642 l 1,80,-1
 -687 638 l 1,81,-1
 -672 630 l 2,82,83
 -669 626 -669 626 -667.5 623 c 128,-1,84
 -666 620 -666 620 -666 613 c 0,85,86
 -666 588 -666 588 -688 575 c 0,87,69
 -693 571 -693 571 -702 571 c 0,70,71
EndSplineSet
EndChar

StartChar: j
Encoding: 106 106 25
Width: 0
GlyphClass: 1
Flags: W
LayerCount: 2
Fore
SplineSet
-251 524 m 0,1,2
 -251 509 -251 509 -256.5 496 c 128,-1,3
 -262 483 -262 483 -270 479 c 0,4,5
 -281 472 -281 472 -304 472 c 0,6,7
 -329 472 -329 472 -341 481 c 0,8,9
 -351 488 -351 488 -351 497 c 0,10,11
 -351 505 -351 505 -343.5 509 c 128,-1,12
 -336 513 -336 513 -324 511 c 0,13,14
 -305 508 -305 508 -305 515 c 256,15,16
 -305 522 -305 522 -321.5 533 c 128,-1,17
 -338 544 -338 544 -363 552 c 0,18,19
 -373 555 -373 555 -401 558 c 1,20,21
 -402 554 -402 554 -404.5 546 c 128,-1,22
 -407 538 -407 538 -411 533 c 128,-1,23
 -415 528 -415 528 -421 525 c 0,24,25
 -428 521 -428 521 -436 521 c 0,26,27
 -443 521 -443 521 -448 525 c 128,-1,28
 -453 529 -453 529 -453 534 c 0,29,30
 -453 541 -453 541 -449 552 c 2,31,-1
 -446 561 l 1,32,-1
 -505 564 l 1,33,-1
 -505 559 l 2,34,35
 -505 545 -505 545 -512 534 c 0,36,37
 -523 518 -523 518 -543.5 509 c 128,-1,38
 -564 500 -564 500 -588 500 c 0,39,40
 -618 500 -618 500 -645 513 c 0,41,42
 -667 523 -667 523 -698 551 c 0,43,44
 -704 556 -704 556 -708 567 c 1,45,46
 -816 565 -816 565 -859 563 c 0,47,48
 -908 560 -908 560 -930 560 c 0,49,50
 -956 560 -956 560 -961 565 c 0,51,52
 -974 580 -974 580 -908 590 c 128,-1,53
 -842 600 -842 600 -711 603 c 1,54,55
 -703 629 -703 629 -677.5 648.5 c 128,-1,56
 -652 668 -652 668 -627 666 c 0,57,58
 -585 663 -585 663 -557 646 c 128,-1,59
 -529 629 -529 629 -516 604 c 1,60,-1
 -440 602 l 1,61,62
 -441 608 -441 608 -441 617 c 2,63,-1
 -441 624 l 2,64,65
 -441 633 -441 633 -437 637 c 0,66,67
 -428 646 -428 646 -418 646 c 0,68,69
 -403 646 -403 646 -397 632 c 0,70,71
 -394 626 -394 626 -394 598 c 1,72,73
 -381 597 -381 597 -364 593 c 0,74,75
 -318 584 -318 584 -288 569.5 c 128,-1,76
 -258 555 -258 555 -253 540 c 0,77,0
 -251 535 -251 535 -251 524 c 0,1,2
-643 618 m 128,-1,79
 -654 612 -654 612 -660 604 c 1,80,-1
 -608 604 l 1,81,-1
 -578 604 l 1,82,83
 -603 624 -603 624 -622 624 c 0,84,78
 -632 624 -632 624 -643 618 c 128,-1,79
-558 565 m 1,85,-1
 -654 567 l 1,86,87
 -643 553 -643 553 -615 546 c 0,88,89
 -611 545 -611 545 -603 545 c 0,90,91
 -590 545 -590 545 -577.5 550 c 128,-1,92
 -565 555 -565 555 -559 563 c 2,93,-1
 -558 565 l 1,85,-1
EndSplineSet
EndChar

StartChar: k
Encoding: 107 107 26
Width: 0
GlyphClass: 1
Flags: W
LayerCount: 2
Fore
SplineSet
-764 443 m 0,1,2
 -753 443 -753 443 -738 450 c 0,3,4
 -719 460 -719 460 -700.5 476.5 c 128,-1,5
 -682 493 -682 493 -671 511 c 2,6,-1
 -667 516 l 1,7,-1
 -656 511 l 2,8,9
 -644 507 -644 507 -627.5 504 c 128,-1,10
 -611 501 -611 501 -602 501 c 0,11,12
 -586 501 -586 501 -570.5 510 c 128,-1,13
 -555 519 -555 519 -548 532 c 0,14,15
 -544 539 -544 539 -544 546 c 0,16,17
 -544 570 -544 570 -545 576 c 128,-1,18
 -546 582 -546 582 -554 599 c 2,19,-1
 -571 627 l 1,20,-1
 -588 647 l 1,21,-1
 -597 655 l 2,22,23
 -608 665 -608 665 -617.5 668.5 c 128,-1,24
 -627 672 -627 672 -647 672 c 0,25,26
 -659 672 -659 672 -665 671 c 128,-1,27
 -671 670 -671 670 -679 667 c 0,28,29
 -688 662 -688 662 -697 652.5 c 128,-1,30
 -706 643 -706 643 -709 635 c 0,31,32
 -712 626 -712 626 -712 616 c 0,33,34
 -712 588 -712 588 -698 563 c 2,35,-1
 -692 550 l 2,36,37
 -692 546 -692 546 -717 519 c 0,38,39
 -741 493 -741 493 -754 493 c 0,40,41
 -765 493 -765 493 -774 511 c 0,42,43
 -780 524 -780 524 -788 532.5 c 128,-1,44
 -796 541 -796 541 -801 541 c 0,45,46
 -811 541 -811 541 -819 529.5 c 128,-1,47
 -827 518 -827 518 -827 503 c 0,48,49
 -827 491 -827 491 -809.5 471 c 128,-1,50
 -792 451 -792 451 -776 445 c 0,51,0
 -768 443 -768 443 -764 443 c 0,1,2
-632 555 m 2,53,-1
 -638 554 l 2,54,55
 -642 554 -642 554 -645 557 c 128,-1,56
 -648 560 -648 560 -649 561 c 0,57,58
 -655 567 -655 567 -655 577 c 0,59,60
 -655 586 -655 586 -650 599 c 0,61,62
 -645 610 -645 610 -639 613.5 c 128,-1,63
 -633 617 -633 617 -621 617 c 0,64,65
 -607 617 -607 617 -603.5 614 c 128,-1,66
 -600 611 -600 611 -600 598 c 0,67,68
 -600 584 -600 584 -604 574 c 128,-1,69
 -608 564 -608 564 -615 561 c 0,70,52
 -620 557 -620 557 -632 555 c 2,53,-1
EndSplineSet
EndChar

StartChar: q
Encoding: 113 113 28
Width: 0
GlyphClass: 1
Flags: W
LayerCount: 2
Fore
SplineSet
-636.5 397.5 m 128,-1,1
 -631 406 -631 406 -631 427 c 0,2,3
 -631 443 -631 443 -634 468 c 0,4,5
 -638 508 -638 508 -638 510 c 0,6,7
 -638 520 -638 520 -635.5 525.5 c 128,-1,8
 -633 531 -633 531 -625 540 c 0,9,10
 -610 556 -610 556 -589 595 c 0,11,12
 -566 638 -566 638 -566 667 c 0,13,14
 -566 707 -566 707 -608 732 c 0,15,16
 -618 737 -618 737 -627 737 c 0,17,18
 -643 737 -643 737 -670 726 c 256,19,20
 -697 715 -697 715 -717.5 681 c 128,-1,21
 -738 647 -738 647 -740 601 c 0,22,23
 -741 577 -741 577 -722 556 c 128,-1,24
 -703 535 -703 535 -676 527 c 0,25,26
 -671 526 -671 526 -671 510 c 0,27,28
 -671 504 -671 504 -673 478 c 0,29,30
 -676 448 -676 448 -676 421 c 0,31,32
 -676 400 -676 400 -672 394.5 c 128,-1,33
 -668 389 -668 389 -654 389 c 0,34,0
 -642 389 -642 389 -636.5 397.5 c 128,-1,1
-634.5 589.5 m 128,-1,36
 -643 579 -643 579 -662 574 c 0,37,38
 -672 572 -672 572 -682.5 582 c 128,-1,39
 -693 592 -693 592 -695 606 c 0,40,41
 -699 620 -699 620 -688.5 640.5 c 128,-1,42
 -678 661 -678 661 -662.5 673.5 c 128,-1,43
 -647 686 -647 686 -637 679 c 0,44,45
 -629 674 -629 674 -624 661.5 c 128,-1,46
 -619 649 -619 649 -619 635 c 0,47,48
 -619 627 -619 627 -620 623 c 0,49,35
 -626 600 -626 600 -634.5 589.5 c 128,-1,36
EndSplineSet
EndChar

StartChar: r
Encoding: 114 114 29
Width: 0
GlyphClass: 1
Flags: W
LayerCount: 2
Fore
SplineSet
-382 318 m 0,1,2
 -397 325 -397 325 -407.5 329 c 128,-1,3
 -418 333 -418 333 -427 333 c 256,4,5
 -436 333 -436 333 -451 330 c 0,6,7
 -469 327 -469 327 -489 327 c 0,8,9
 -516 327 -516 327 -541 331.5 c 128,-1,10
 -566 336 -566 336 -579 343 c 0,11,12
 -620 366 -620 366 -620 418 c 2,13,-1
 -620 445 l 1,14,-1
 -678 468 l 2,15,16
 -728 488 -728 488 -763 508.5 c 128,-1,17
 -798 529 -798 529 -800 538 c 0,18,19
 -804 553 -804 553 -795 563.5 c 128,-1,20
 -786 574 -786 574 -772 574 c 0,21,22
 -761 574 -761 574 -755 569 c 0,23,24
 -725 548 -725 548 -685.5 522.5 c 128,-1,25
 -646 497 -646 497 -631 490 c 0,26,27
 -617 483 -617 483 -605.5 480.5 c 128,-1,28
 -594 478 -594 478 -580 479 c 0,29,30
 -559 482 -559 482 -500 482 c 0,31,32
 -466 482 -466 482 -452.5 480 c 128,-1,33
 -439 478 -439 478 -430 472 c 0,34,35
 -392 450 -392 450 -391 397 c 2,36,-1
 -390 365 l 1,37,-1
 -337 342 l 2,38,39
 -283 318 -283 318 -264 308.5 c 128,-1,40
 -245 299 -245 299 -230 286 c 0,41,42
 -213 276 -213 276 -213 266 c 0,43,44
 -213 258 -213 258 -222 246 c 0,45,46
 -232 233 -232 233 -241 233 c 0,47,48
 -247 233 -247 233 -263 244 c 0,49,0
 -338 300 -338 300 -382 318 c 0,1,2
-444 400 m 0,51,52
 -444 414 -444 414 -459 432 c 0,53,54
 -469 443 -469 443 -476.5 446 c 128,-1,55
 -484 449 -484 449 -501 449 c 0,56,57
 -526 449 -526 449 -540 440.5 c 128,-1,58
 -554 432 -554 432 -554 416 c 0,59,60
 -554 399 -554 399 -538 386 c 0,61,62
 -529 379 -529 379 -514.5 375.5 c 128,-1,63
 -500 372 -500 372 -485 372 c 0,64,65
 -460 372 -460 372 -451 381 c 0,66,50
 -444 389 -444 389 -444 400 c 0,51,52
EndSplineSet
EndChar

StartChar: s
Encoding: 115 115 30
Width: 0
GlyphClass: 1
Flags: W
LayerCount: 2
Fore
SplineSet
-772 233 m 0,1,2
 -781 233 -781 233 -791 246 c 0,3,4
 -800 258 -800 258 -800 266 c 0,5,6
 -800 276 -800 276 -783 286 c 0,7,8
 -768 299 -768 299 -749 308.5 c 128,-1,9
 -730 318 -730 318 -676 342 c 2,10,-1
 -623 365 l 1,11,-1
 -622 397 l 2,12,13
 -621 450 -621 450 -583 472 c 0,14,15
 -574 478 -574 478 -560.5 480 c 128,-1,16
 -547 482 -547 482 -513 482 c 0,17,18
 -454 482 -454 482 -433 479 c 0,19,20
 -419 478 -419 478 -407.5 480.5 c 128,-1,21
 -396 483 -396 483 -382 490 c 0,22,23
 -367 497 -367 497 -327.5 522.5 c 128,-1,24
 -288 548 -288 548 -258 569 c 0,25,26
 -252 574 -252 574 -241 574 c 0,27,28
 -227 574 -227 574 -218 563.5 c 128,-1,29
 -209 553 -209 553 -213 538 c 0,30,31
 -215 529 -215 529 -250 508.5 c 128,-1,32
 -285 488 -285 488 -335 468 c 2,33,-1
 -393 445 l 1,34,-1
 -393 418 l 2,35,36
 -393 366 -393 366 -434 343 c 0,37,38
 -447 336 -447 336 -472 331.5 c 128,-1,39
 -497 327 -497 327 -524 327 c 0,40,41
 -544 327 -544 327 -562 330 c 0,42,43
 -577 333 -577 333 -586 333 c 256,44,45
 -595 333 -595 333 -605.5 329 c 128,-1,46
 -616 325 -616 325 -631 318 c 0,47,48
 -675 300 -675 300 -750 244 c 0,49,0
 -766 233 -766 233 -772 233 c 0,1,2
-528 372 m 0,51,52
 -513 372 -513 372 -498.5 375.5 c 128,-1,53
 -484 379 -484 379 -475 386 c 0,54,55
 -459 399 -459 399 -459 416 c 0,56,57
 -459 432 -459 432 -473 440.5 c 128,-1,58
 -487 449 -487 449 -512 449 c 0,59,60
 -529 449 -529 449 -536.5 446 c 128,-1,61
 -544 443 -544 443 -554 432 c 0,62,63
 -569 414 -569 414 -569 400 c 0,64,65
 -569 389 -569 389 -562 381 c 0,66,50
 -553 372 -553 372 -528 372 c 0,51,52
EndSplineSet
EndChar

StartChar: t
Encoding: 116 116 32
Width: 0
GlyphClass: 1
Flags: W
LayerCount: 2
Fore
SplineSet
-547 516 m 0,1,2
 -547 500 -547 500 -554 489 c 0,3,4
 -565 473 -565 473 -585.5 464 c 128,-1,5
 -606 455 -606 455 -630 455 c 0,6,7
 -660 455 -660 455 -687 468 c 0,8,9
 -709 478 -709 478 -740 506 c 0,10,11
 -754 520 -754 520 -754 545 c 0,12,13
 -754 555 -754 555 -753 557 c 0,14,15
 -745 583 -745 583 -720.5 602.5 c 128,-1,16
 -696 622 -696 622 -671 621 c 0,17,18
 -670 624 -670 624 -670 630 c 0,19,20
 -670 634 -670 634 -672 652 c 0,21,22
 -672 658 -672 658 -674 674 c 0,23,24
 -677 698 -677 698 -677 714 c 0,25,26
 -677 735 -677 735 -671.5 744 c 128,-1,27
 -666 753 -666 753 -653 753 c 0,28,29
 -641 753 -641 753 -637.5 749.5 c 128,-1,30
 -634 746 -634 746 -632 732 c 0,31,32
 -630 709 -630 709 -635 664 c 0,33,34
 -637 638 -637 638 -637 632 c 0,35,36
 -637 616 -637 616 -632 615 c 2,37,-1
 -630 614 l 1,38,39
 -602 606 -602 606 -582.5 589 c 128,-1,40
 -563 572 -563 572 -554 551 c 0,41,0
 -547 535 -547 535 -547 516 c 0,1,2
-606 544 m 128,-1,43
 -618 560 -618 560 -637.5 571 c 128,-1,44
 -657 582 -657 582 -671 578 c 0,45,46
 -685 576 -685 576 -697 564.5 c 128,-1,47
 -709 553 -709 553 -706 543 c 0,48,49
 -700 524 -700 524 -690 515.5 c 128,-1,50
 -680 507 -680 507 -657 501 c 0,51,52
 -653 500 -653 500 -645 500 c 0,53,54
 -632 500 -632 500 -619.5 505 c 128,-1,55
 -607 510 -607 510 -601 518 c 0,56,42
 -594 528 -594 528 -606 544 c 128,-1,43
EndSplineSet
EndChar

StartChar: u
Encoding: 117 117 33
Width: 0
GlyphClass: 1
Flags: W
LayerCount: 2
Fore
SplineSet
-594 430 m 0,1,2
 -571 430 -571 430 -558 435 c 0,3,4
 -541 441 -541 441 -530 459 c 0,5,6
 -528 462 -528 462 -528 464 c 128,-1,7
 -528 466 -528 466 -531 469 c 0,8,9
 -535 471 -535 471 -536 471 c 0,10,11
 -538 471 -538 471 -549 464 c 0,12,13
 -565 459 -565 459 -577 459 c 0,14,15
 -603 459 -603 459 -621 476 c 0,16,17
 -640 492 -640 492 -663 496 c 0,18,19
 -675 498 -675 498 -677 501 c 128,-1,20
 -679 504 -679 504 -680 520 c 2,21,-1
 -681 531 l 1,22,-1
 -666 538 l 2,23,24
 -640 552 -640 552 -621 579 c 0,25,26
 -615 587 -615 587 -614 590.5 c 128,-1,27
 -613 594 -613 594 -613 602 c 0,28,29
 -614 617 -614 617 -626 632.5 c 128,-1,30
 -638 648 -638 648 -651 653 c 0,31,32
 -661 655 -661 655 -671 655 c 2,33,-1
 -681 655 l 1,34,-1
 -681 690 l 1,35,-1
 -680 713 l 2,36,37
 -680 726 -680 726 -683 727 c 0,38,39
 -685 729 -685 729 -689 729 c 0,40,41
 -698 729 -698 729 -710 721 c 2,42,-1
 -717 714 l 1,43,-1
 -715 690 l 1,44,-1
 -714 662 l 2,45,46
 -714 655 -714 655 -716 652.5 c 128,-1,47
 -718 650 -718 650 -723 648.5 c 128,-1,48
 -728 647 -728 647 -731 646 c 0,49,50
 -759 636 -759 636 -771 623.5 c 128,-1,51
 -783 611 -783 611 -784 594 c 0,52,53
 -785 591 -785 591 -785 586 c 0,54,55
 -785 582 -785 582 -783.5 577.5 c 128,-1,56
 -782 573 -782 573 -781 571 c 0,57,58
 -776 562 -776 562 -764.5 552 c 128,-1,59
 -753 542 -753 542 -744 538 c 0,60,61
 -741 537 -741 537 -735.5 535.5 c 128,-1,62
 -730 534 -730 534 -724 531 c 0,63,64
 -715 531 -715 531 -713 529 c 2,65,-1
 -714 515 l 2,66,67
 -716 499 -716 499 -722.5 489 c 128,-1,68
 -729 479 -729 479 -747 464 c 0,69,70
 -761 452 -761 452 -764 447 c 128,-1,71
 -767 442 -767 442 -764 438 c 0,72,73
 -762 436 -762 436 -757 436 c 0,74,75
 -751 436 -751 436 -742 442 c 0,76,77
 -722 456 -722 456 -695 456 c 0,78,79
 -674 456 -674 456 -659 447 c 0,80,81
 -654 443 -654 443 -633 435 c 0,82,0
 -616 430 -616 430 -594 430 c 0,1,2
-701 561 m 0,84,85
 -716 561 -716 561 -727 578 c 0,86,87
 -731 583 -731 583 -731 591 c 256,88,89
 -731 599 -731 599 -727 604 c 0,90,91
 -724 611 -724 611 -718.5 616.5 c 128,-1,92
 -713 622 -713 622 -705 628 c 2,93,-1
 -694 632 l 1,94,-1
 -687 629 l 2,95,96
 -684 628 -684 628 -679 625 c 128,-1,97
 -674 622 -674 622 -672 621 c 0,98,99
 -669 617 -669 617 -667.5 614 c 128,-1,100
 -666 611 -666 611 -666 604 c 0,101,102
 -666 592 -666 592 -672 581.5 c 128,-1,103
 -678 571 -678 571 -688 565 c 0,104,83
 -693 561 -693 561 -701 561 c 0,84,85
EndSplineSet
EndChar

StartChar: w
Encoding: 119 119 34
Width: 0
GlyphClass: 1
Flags: W
LayerCount: 2
Fore
SplineSet
-618 397 m 0,1,2
 -608 397 -608 397 -595 400 c 0,3,4
 -586 402 -586 402 -582.5 404 c 128,-1,5
 -579 406 -579 406 -574 412 c 0,6,7
 -568 419 -568 419 -567 422 c 128,-1,8
 -566 425 -566 425 -566 434 c 0,9,10
 -566 466 -566 466 -599 479 c 0,11,12
 -613 484 -613 484 -626 485.5 c 128,-1,13
 -639 487 -639 487 -671 486 c 2,14,-1
 -689 486 l 2,15,16
 -711 486 -711 486 -712 487 c 0,17,18
 -712 488 -712 488 -703 501 c 0,19,20
 -686 520 -686 520 -646 546 c 0,21,22
 -605 574 -605 574 -605 586 c 0,23,24
 -605 593 -605 593 -611 597 c 0,25,26
 -615 601 -615 601 -622 601.5 c 128,-1,27
 -629 602 -629 602 -646 602 c 2,28,-1
 -675 603 l 1,29,-1
 -654 615 l 2,30,31
 -625 632 -625 632 -612 642.5 c 128,-1,32
 -599 653 -599 653 -599 661 c 0,33,34
 -599 664 -599 664 -603 670 c 0,35,36
 -607 675 -607 675 -614.5 677.5 c 128,-1,37
 -622 680 -622 680 -648 683 c 0,38,39
 -677 687 -677 687 -677 689 c 0,40,41
 -677 690 -677 690 -669 695 c 0,42,43
 -651 709 -651 709 -602 724 c 0,44,45
 -566 735 -566 735 -557 745 c 0,46,47
 -554 750 -554 750 -554 752 c 256,48,49
 -554 754 -554 754 -560 760 c 2,50,-1
 -566 767 l 1,51,-1
 -584 767 l 1,52,53
 -641 762 -641 762 -712 709 c 0,54,55
 -727 698 -727 698 -732 693 c 128,-1,56
 -737 688 -737 688 -737 683 c 0,57,58
 -737 659 -737 659 -669 654 c 2,59,-1
 -650 652 l 1,60,-1
 -656 649 l 1,61,62
 -656 649 -656 649 -671 640 c 0,63,64
 -677 636 -677 636 -700 624 c 0,65,66
 -733 603 -733 603 -746 589 c 0,67,68
 -760 572 -760 572 -760 563 c 256,69,70
 -760 554 -760 554 -741 554 c 0,71,72
 -734 554 -734 554 -722.5 555.5 c 128,-1,73
 -711 557 -711 557 -705 559 c 2,74,-1
 -686 561 l 1,75,-1
 -682 560 l 2,76,77
 -682 559 -682 559 -687.5 554.5 c 128,-1,78
 -693 550 -693 550 -698 546 c 0,79,80
 -729 523 -729 523 -748.5 500.5 c 128,-1,81
 -768 478 -768 478 -768 466 c 0,82,83
 -768 457 -768 457 -761 453.5 c 128,-1,84
 -754 450 -754 450 -734 448 c 2,85,-1
 -723 447 l 2,86,87
 -718 447 -718 447 -696 452 c 0,88,89
 -679 456 -679 456 -669 456 c 0,90,91
 -662 456 -662 456 -657 455 c 0,92,93
 -651 454 -651 454 -646 453 c 128,-1,94
 -641 452 -641 452 -638 451 c 0,95,96
 -634 450 -634 450 -634 445 c 256,97,98
 -634 440 -634 440 -638 436 c 0,99,100
 -643 431 -643 431 -643 423 c 0,101,102
 -643 413 -643 413 -639 407 c 128,-1,103
 -635 401 -635 401 -626 398 c 0,104,0
 -624 397 -624 397 -618 397 c 0,1,2
EndSplineSet
EndChar

StartChar: y
Encoding: 121 121 35
Width: 0
GlyphClass: 1
Flags: W
LayerCount: 2
Fore
SplineSet
-604 411 m 0,1,2
 -595 411 -595 411 -577 416 c 0,3,4
 -565 420 -565 420 -555 429 c 0,5,6
 -554 431 -554 431 -551 434.5 c 128,-1,7
 -548 438 -548 438 -547.5 440.5 c 128,-1,8
 -547 443 -547 443 -548 446 c 0,9,10
 -548 469 -548 469 -568.5 481.5 c 128,-1,11
 -589 494 -589 494 -626 494 c 0,12,13
 -654 494 -654 494 -679 489 c 0,14,15
 -694 487 -694 487 -704 487 c 0,16,17
 -706 490 -706 490 -694.5 503 c 128,-1,18
 -683 516 -683 516 -663 532 c 0,19,20
 -656 538 -656 538 -642.5 548 c 128,-1,21
 -629 558 -629 558 -625 562 c 0,22,23
 -604 575 -604 575 -602 588 c 0,24,25
 -602 592 -602 592 -602.5 594.5 c 128,-1,26
 -603 597 -603 597 -606 599 c 0,27,28
 -609 604 -609 604 -611.5 604.5 c 128,-1,29
 -614 605 -614 605 -627 604 c 0,30,31
 -645 602 -645 602 -660 602 c 2,32,-1
 -676 599 l 1,33,-1
 -666 606 l 1,34,35
 -593 652 -593 652 -600 668 c 0,36,37
 -600 669 -600 669 -608 675 c 0,38,39
 -614 679 -614 679 -622.5 679.5 c 128,-1,40
 -631 680 -631 680 -651 680 c 0,41,42
 -686 681 -686 681 -683 684 c 0,43,44
 -680 686 -680 686 -671.5 691 c 128,-1,45
 -663 696 -663 696 -649 706 c 2,46,-1
 -620 724 l 1,47,-1
 -595 713 l 2,48,49
 -582 707 -582 707 -574.5 704.5 c 128,-1,50
 -567 702 -567 702 -560 702 c 0,51,52
 -551 702 -551 702 -548 705 c 256,53,54
 -545 708 -545 708 -542.5 712 c 128,-1,55
 -540 716 -540 716 -540 718 c 2,56,-1
 -582 738 l 2,57,58
 -589 740 -589 740 -589 742 c 0,59,60
 -587 746 -587 746 -583 748 c 2,61,-1
 -566 760 l 2,62,63
 -560 766 -560 766 -560 768 c 256,64,65
 -560 770 -560 770 -562.5 771.5 c 128,-1,66
 -565 773 -565 773 -570 775 c 0,67,68
 -577 779 -577 779 -583 779 c 0,69,70
 -591 779 -591 779 -608 769 c 0,71,72
 -624 760 -624 760 -628 760 c 0,73,74
 -630 760 -630 760 -636 762.5 c 128,-1,75
 -642 765 -642 765 -650 769 c 0,76,77
 -670 778 -670 778 -675 778 c 256,78,79
 -680 778 -680 778 -691.5 772 c 128,-1,80
 -703 766 -703 766 -703 763 c 256,81,82
 -703 760 -703 760 -696 756 c 128,-1,83
 -689 752 -689 752 -679 750 c 0,84,85
 -660 744 -660 744 -660 742 c 256,86,87
 -660 740 -660 740 -676 731 c 0,88,89
 -704 712 -704 712 -735 687 c 0,90,91
 -744 680 -744 680 -744 671 c 0,92,93
 -744 659 -744 659 -725 653 c 0,94,95
 -717 650 -717 650 -684 650 c 2,96,-1
 -654 650 l 1,97,-1
 -693 624 l 2,98,99
 -731 599 -731 599 -743 585 c 0,100,101
 -768 558 -768 558 -757 550 c 0,102,103
 -755 549 -755 549 -748 549 c 0,104,105
 -730 549 -730 549 -705 556 c 0,106,107
 -685 563 -685 563 -677 563 c 0,108,109
 -675 563 -675 563 -693 548 c 0,110,111
 -759 488 -759 488 -759 462 c 0,112,113
 -759 455 -759 455 -752.5 453 c 128,-1,114
 -746 451 -746 451 -727 451 c 0,115,116
 -710 451 -710 451 -695 454 c 0,117,118
 -667 461 -667 461 -646 461 c 0,119,120
 -619 461 -619 461 -619 454 c 0,121,122
 -619 452 -619 452 -624 445 c 0,123,124
 -628 440 -628 440 -628 432 c 0,125,126
 -625 419 -625 419 -615 413 c 0,127,0
 -609 411 -609 411 -604 411 c 0,1,2
EndSplineSet
EndChar

StartChar: one
Encoding: 49 49 36
Width: 0
GlyphClass: 1
Flags: W
LayerCount: 2
Fore
SplineSet
-1056 253 m 0,1,2
 -1053 253 -1053 253 -1045 256 c 0,3,4
 -1039 259 -1039 259 -1039 264 c 0,5,6
 -1039 268 -1039 268 -1043 276 c 0,7,8
 -1057 309 -1057 309 -1055 354 c 1,9,-1
 -1053 368 l 1,10,-1
 -1031 368 l 2,11,12
 -1019 368 -1019 368 -1013.5 369 c 128,-1,13
 -1008 370 -1008 370 -1006 372 c 0,14,15
 -1003 375 -1003 375 -1004 381 c 0,16,17
 -1004 382 -1004 382 -1004.5 386 c 128,-1,18
 -1005 390 -1005 390 -1023 390.5 c 128,-1,19
 -1041 391 -1041 391 -1070 391 c 2,20,-1
 -1117 391 l 1,21,-1
 -1223 391 l 1,22,-1
 -1226 388 l 2,23,24
 -1233 381 -1233 381 -1233 370 c 0,25,26
 -1233 363 -1233 363 -1230 361 c 128,-1,27
 -1227 359 -1227 359 -1217 358 c 2,28,-1
 -1212 358 l 2,29,30
 -1207 358 -1207 358 -1205.5 359.5 c 128,-1,31
 -1204 361 -1204 361 -1204 366 c 2,32,-1
 -1204 369 l 1,33,-1
 -1182 369 l 2,34,35
 -1163 369 -1163 369 -1159 367 c 128,-1,36
 -1155 365 -1155 365 -1155 357 c 0,37,38
 -1155 344 -1155 344 -1166 289 c 0,39,40
 -1172 273 -1172 273 -1172 265 c 0,41,42
 -1171 264 -1171 264 -1164 264 c 0,43,44
 -1146 264 -1146 264 -1140.5 266 c 128,-1,45
 -1135 268 -1135 268 -1130 276 c 0,46,47
 -1126 283 -1126 283 -1125 292 c 128,-1,48
 -1124 301 -1124 301 -1124 323 c 2,49,-1
 -1122 359 l 1,50,-1
 -1121 369 l 1,51,-1
 -1099 369 l 1,52,-1
 -1099 343 l 2,53,54
 -1100 335 -1100 335 -1100 321 c 0,55,56
 -1100 294 -1100 294 -1094 283 c 0,57,58
 -1085 262 -1085 262 -1062 254 c 0,59,0
 -1060 253 -1060 253 -1056 253 c 0,1,2
EndSplineSet
EndChar

StartChar: two
Encoding: 50 50 37
Width: 0
GlyphClass: 1
Flags: W
LayerCount: 2
Fore
SplineSet
-1119 216 m 0,1,2
 -1132 216 -1132 216 -1135.5 217 c 128,-1,3
 -1139 218 -1139 218 -1144 225 c 0,4,5
 -1153 241 -1153 241 -1157 262 c 0,6,7
 -1159 278 -1159 278 -1159 305 c 0,8,9
 -1159 331 -1159 331 -1158 332 c 256,10,11
 -1157 333 -1157 333 -1163 336 c 0,12,13
 -1175 340 -1175 340 -1179 347 c 0,14,15
 -1181 351 -1181 351 -1181 354 c 0,16,17
 -1181 359 -1181 359 -1178.5 361 c 128,-1,18
 -1176 363 -1176 363 -1169 365 c 0,19,20
 -1161 367 -1161 367 -1161 369 c 1,21,22
 -1159 369 -1159 369 -1157 376 c 0,23,24
 -1155 384 -1155 384 -1149.5 392.5 c 128,-1,25
 -1144 401 -1144 401 -1139 406 c 0,26,27
 -1123 422 -1123 422 -1101 422 c 0,28,29
 -1086 422 -1086 422 -1070 414 c 0,30,31
 -1050 403 -1050 403 -1050 382 c 0,32,33
 -1050 376 -1050 376 -1051 372 c 0,34,35
 -1058 344 -1058 344 -1083 341 c 0,36,37
 -1110 337 -1110 337 -1110 336 c 0,38,39
 -1110 334 -1110 334 -1098 325 c 0,40,41
 -1081 311 -1081 311 -1078 309 c 0,42,43
 -1072 304 -1072 304 -1069.5 299 c 128,-1,44
 -1067 294 -1067 294 -1062 284 c 0,45,46
 -1055 266 -1055 266 -1055 260 c 0,47,48
 -1055 255 -1055 255 -1056 251 c 0,49,50
 -1060 237 -1060 237 -1067 230 c 0,51,52
 -1072 225 -1072 225 -1094 218 c 0,53,0
 -1103 216 -1103 216 -1119 216 c 0,1,2
-1126.5 364.5 m 128,-1,55
 -1115 365 -1115 365 -1105 366 c 0,56,57
 -1086 369 -1086 369 -1083 377 c 0,58,59
 -1081 379 -1081 379 -1081 381 c 0,60,61
 -1081 382 -1081 382 -1085 388 c 0,62,63
 -1087 390 -1087 390 -1089 390.5 c 128,-1,64
 -1091 391 -1091 391 -1096 391 c 0,65,66
 -1103 391 -1103 391 -1118 387 c 0,67,68
 -1131 383 -1131 383 -1135.5 379 c 128,-1,69
 -1140 375 -1140 375 -1141 374 c 0,70,71
 -1147 369 -1147 369 -1143 365 c 0,72,54
 -1138 364 -1138 364 -1126.5 364.5 c 128,-1,55
-1116 253.5 m 128,-1,74
 -1114 253 -1114 253 -1109 253 c 0,75,76
 -1101 253 -1101 253 -1099 255 c 256,77,78
 -1097 257 -1097 257 -1097 259 c 0,79,80
 -1097 273 -1097 273 -1099.5 281 c 128,-1,81
 -1102 289 -1102 289 -1110 295 c 0,82,83
 -1120 303 -1120 303 -1122 302 c 0,84,85
 -1123 296 -1123 296 -1123 283.5 c 128,-1,86
 -1123 271 -1123 271 -1122 262 c 0,87,88
 -1122 258 -1122 258 -1119 255 c 0,89,73
 -1118 254 -1118 254 -1116 253.5 c 128,-1,74
EndSplineSet
EndChar

StartChar: three
Encoding: 51 51 38
Width: 0
GlyphClass: 1
Flags: W
LayerCount: 2
Fore
SplineSet
-1133 238 m 0,1,2
 -1127 238 -1127 238 -1125.5 242 c 128,-1,3
 -1124 246 -1124 246 -1124 262 c 0,4,5
 -1124 288 -1124 288 -1125 309 c 2,6,-1
 -1126 373 l 1,7,-1
 -1091 372 l 2,8,9
 -1079 371 -1079 371 -1065 371 c 0,10,11
 -1053 371 -1053 371 -1048 375 c 0,12,13
 -1042 377 -1042 377 -1041 379 c 128,-1,14
 -1040 381 -1040 381 -1042 386 c 0,15,16
 -1042 389 -1042 389 -1043.5 392.5 c 128,-1,17
 -1045 396 -1045 396 -1048 398 c 0,18,19
 -1051 402 -1051 402 -1057.5 403.5 c 128,-1,20
 -1064 405 -1064 405 -1075 405 c 0,21,22
 -1115 405 -1115 405 -1138 407 c 0,23,24
 -1161 407 -1161 407 -1172 406.5 c 128,-1,25
 -1183 406 -1183 406 -1184 405 c 0,26,27
 -1187 401 -1187 401 -1187 396 c 256,28,29
 -1187 391 -1187 391 -1182 384 c 0,30,31
 -1177 378 -1177 378 -1176 368 c 128,-1,32
 -1175 358 -1175 358 -1175 313 c 0,33,34
 -1174 248 -1174 248 -1171 244 c 0,35,36
 -1169 241 -1169 241 -1151 239 c 0,37,0
 -1135 239 -1135 239 -1133 238 c 0,1,2
EndSplineSet
EndChar

StartChar: four
Encoding: 52 52 39
Width: 0
GlyphClass: 1
Flags: W
LayerCount: 2
Fore
SplineSet
-1104 231 m 2,0,1
 -1062 231 -1062 231 -1041.5 231.5 c 128,-1,2
 -1021 232 -1021 232 -1021 233 c 0,3,4
 -1021 237 -1021 237 -1026 245 c 0,5,6
 -1035 261 -1035 261 -1043 282 c 128,-1,7
 -1051 303 -1051 303 -1069 358 c 0,8,9
 -1078 385 -1078 385 -1086 405 c 0,10,11
 -1088 409 -1088 409 -1090 411 c 128,-1,12
 -1092 413 -1092 413 -1096 413 c 256,13,14
 -1100 413 -1100 413 -1103 409 c 0,15,16
 -1108 399 -1108 399 -1133 334 c 2,17,-1
 -1162 262 l 1,18,-1
 -1180 262 l 2,19,20
 -1198 261 -1198 261 -1202 258 c 0,21,22
 -1206 254 -1206 254 -1206 252 c 0,23,24
 -1206 249 -1206 249 -1196 240 c 2,25,-1
 -1186 231 l 1,26,-1
 -1104 231 l 2,0,1
-1104 272 m 1,27,-1
 -1123 270 l 1,28,-1
 -1123 275 l 2,29,30
 -1123 279 -1123 279 -1110.5 306 c 128,-1,31
 -1098 333 -1098 333 -1096 333 c 0,32,33
 -1095 332 -1095 332 -1090.5 307.5 c 128,-1,34
 -1086 283 -1086 283 -1085 273 c 1,35,-1
 -1104 272 l 1,27,-1
EndSplineSet
EndChar

StartChar: five
Encoding: 53 53 40
Width: 0
GlyphClass: 1
Flags: W
LayerCount: 2
Fore
SplineSet
-1196 229.5 m 128,-1,1
 -1193 229 -1193 229 -1187 229 c 0,2,3
 -1169 229 -1169 229 -1154 236 c 0,4,5
 -1136 245 -1136 245 -1133 259 c 2,6,-1
 -1131 265 l 2,7,8
 -1129 265 -1129 265 -1118.5 262 c 128,-1,9
 -1108 259 -1108 259 -1085 254 c 0,10,11
 -1037 243 -1037 243 -1034 243 c 0,12,13
 -1029 243 -1029 243 -1026 247 c 0,14,15
 -1023 249 -1023 249 -1022.5 251.5 c 128,-1,16
 -1022 254 -1022 254 -1022 259 c 0,17,18
 -1022 271 -1022 271 -1028 279 c 0,19,20
 -1030 282 -1030 282 -1040 284.5 c 128,-1,21
 -1050 287 -1050 287 -1075 290 c 0,22,23
 -1128 301 -1128 301 -1136 304 c 0,24,25
 -1139 305 -1139 305 -1138 308 c 0,26,27
 -1138 310 -1138 310 -1137 310 c 0,28,29
 -1135 313 -1135 313 -1098.5 325.5 c 128,-1,30
 -1062 338 -1062 338 -1053 339 c 0,31,32
 -1042 342 -1042 342 -1041 343 c 0,33,34
 -1037 344 -1037 344 -1033.5 348.5 c 128,-1,35
 -1030 353 -1030 353 -1029 356 c 2,36,-1
 -1029 359 l 2,37,38
 -1029 373 -1029 373 -1033 381 c 0,39,40
 -1034 383 -1034 383 -1036.5 384 c 128,-1,41
 -1039 385 -1039 385 -1044 385 c 0,42,43
 -1050 385 -1050 385 -1060.5 381.5 c 128,-1,44
 -1071 378 -1071 378 -1097 369 c 2,45,-1
 -1142 354 l 1,46,-1
 -1144 356 l 1,47,48
 -1144 366 -1144 366 -1141 385 c 2,49,-1
 -1138 410 l 1,50,-1
 -1140 413 l 2,51,52
 -1142 415 -1142 415 -1146 415 c 2,53,-1
 -1159 414 l 2,54,55
 -1184 409 -1184 409 -1195 399 c 2,56,-1
 -1200 394 l 1,57,-1
 -1200 385 l 2,58,59
 -1200 376 -1200 376 -1190 336 c 0,60,61
 -1181 297 -1181 297 -1181 292 c 256,62,63
 -1181 287 -1181 287 -1186 275.5 c 128,-1,64
 -1191 264 -1191 264 -1198 254 c 0,65,66
 -1202 249 -1202 249 -1204 245.5 c 128,-1,67
 -1206 242 -1206 242 -1205 239 c 0,68,69
 -1205 236 -1205 236 -1201 232 c 0,70,0
 -1199 230 -1199 230 -1196 229.5 c 128,-1,1
EndSplineSet
EndChar

StartChar: six
Encoding: 54 54 41
Width: 0
GlyphClass: 1
Flags: W
LayerCount: 2
Fore
SplineSet
-1178 230 m 1,0,-1
 -1148 239 l 2,1,2
 -1143 241 -1143 241 -1131 245 c 128,-1,3
 -1119 249 -1119 249 -1112 249 c 0,4,5
 -1106 249 -1106 249 -1099 246 c 128,-1,6
 -1092 243 -1092 243 -1083 238 c 2,7,-1
 -1072 232 l 1,8,-1
 -1054 231 l 2,9,10
 -1042 230 -1042 230 -1029 230 c 0,11,12
 -1019 230 -1019 230 -1015 232 c 0,13,14
 -1009 235 -1009 235 -1009 236 c 0,15,16
 -1010 239 -1010 239 -1015 245.5 c 128,-1,17
 -1020 252 -1020 252 -1025 258 c 0,18,19
 -1047 282 -1047 282 -1067 286 c 0,20,21
 -1077 288 -1077 288 -1083 288 c 0,22,23
 -1101 288 -1101 288 -1116 281 c 0,24,25
 -1124 277 -1124 277 -1124 278 c 0,26,27
 -1124 282 -1124 282 -1106.5 299.5 c 128,-1,28
 -1089 317 -1089 317 -1071 330 c 0,29,30
 -1056 341 -1056 341 -1042 355 c 128,-1,31
 -1028 369 -1028 369 -1024 376 c 0,32,33
 -1021 382 -1021 382 -1021 386 c 256,34,35
 -1021 390 -1021 390 -1026 395 c 0,36,37
 -1030 399 -1030 399 -1039 402 c 0,38,39
 -1051 404 -1051 404 -1066 404 c 0,40,41
 -1091 404 -1091 404 -1115 400 c 0,42,43
 -1127 398 -1127 398 -1133 398 c 0,44,45
 -1148 398 -1148 398 -1155 403 c 0,46,47
 -1157 404 -1157 404 -1159 406.5 c 128,-1,48
 -1161 409 -1161 409 -1162 410 c 0,49,50
 -1165 415 -1165 415 -1167 415 c 0,51,52
 -1170 415 -1170 415 -1175.5 411 c 128,-1,53
 -1181 407 -1181 407 -1185 402 c 0,54,55
 -1191 395 -1191 395 -1196 394 c 0,56,57
 -1214 389 -1214 389 -1217 385 c 0,58,59
 -1219 383 -1219 383 -1218 380 c 0,60,61
 -1214 373 -1214 373 -1196 369 c 128,-1,62
 -1178 365 -1178 365 -1138 361 c 2,63,-1
 -1127 360 l 1,64,-1
 -1138 348 l 2,65,66
 -1182 295 -1182 295 -1189 267 c 0,67,68
 -1192 260 -1192 260 -1192 254 c 256,69,70
 -1192 248 -1192 248 -1184 235 c 1,71,-1
 -1178 230 l 1,0,-1
EndSplineSet
EndChar

StartChar: seven
Encoding: 55 55 42
Width: 0
GlyphClass: 1
Flags: W
LayerCount: 2
Fore
SplineSet
-1107 241 m 0,1,2
 -1106 241 -1106 241 -1100 245 c 0,3,4
 -1091 259 -1091 259 -1078 289 c 0,5,6
 -1069 309 -1069 309 -1051 336 c 0,7,8
 -1039 354 -1039 354 -1035 362 c 128,-1,9
 -1031 370 -1031 370 -1031 374 c 0,10,11
 -1031 381 -1031 381 -1035 386 c 0,12,13
 -1039 393 -1039 393 -1043 395.5 c 128,-1,14
 -1047 398 -1047 398 -1054 398 c 2,15,-1
 -1061 398 l 1,16,-1
 -1069 387 l 2,17,18
 -1083 370 -1083 370 -1094 351 c 128,-1,19
 -1105 332 -1105 332 -1108 322 c 2,20,-1
 -1110 316 l 2,21,22
 -1111 314 -1111 314 -1116 338 c 0,23,24
 -1119 354 -1119 354 -1133.5 374 c 128,-1,25
 -1148 394 -1148 394 -1161 401 c 0,26,27
 -1167 404 -1167 404 -1172 403 c 256,28,29
 -1177 402 -1177 402 -1184 395 c 0,30,31
 -1190 389 -1190 389 -1192.5 381.5 c 128,-1,32
 -1195 374 -1195 374 -1196 360 c 2,33,-1
 -1196 352 l 2,34,35
 -1196 346 -1196 346 -1195 344 c 128,-1,36
 -1194 342 -1194 342 -1190 340 c 0,37,38
 -1178 337 -1178 337 -1162 325 c 0,39,40
 -1153 318 -1153 318 -1145.5 310 c 128,-1,41
 -1138 302 -1138 302 -1137 298 c 0,42,43
 -1135 289 -1135 289 -1130.5 275 c 128,-1,44
 -1126 261 -1126 261 -1123 256 c 0,45,46
 -1119 247 -1119 247 -1115 245 c 0,47,0
 -1109 241 -1109 241 -1107 241 c 0,1,2
EndSplineSet
EndChar

StartChar: period
Encoding: 46 46 43
Width: 0
GlyphClass: 1
Flags: W
LayerCount: 2
Fore
SplineSet
-536 449 m 0,1,2
 -536 409 -536 409 -578 384 c 0,3,4
 -588 379 -588 379 -597 379 c 0,5,6
 -613 379 -613 379 -640 390 c 256,7,8
 -667 401 -667 401 -687.5 435 c 128,-1,9
 -708 469 -708 469 -710 515 c 0,10,11
 -711 539 -711 539 -692 560 c 128,-1,12
 -673 581 -673 581 -646 589 c 0,13,14
 -639 590 -639 590 -641 617 c 1,15,16
 -674 622 -674 622 -679 627 c 0,17,18
 -690 634 -690 634 -690 644 c 0,19,20
 -690 653 -690 653 -687 657.5 c 128,-1,21
 -684 662 -684 662 -677 667 c 0,22,23
 -674 670 -674 670 -669 670 c 2,24,-1
 -656 668 l 1,25,-1
 -645 665 l 1,26,27
 -647 700 -647 700 -646 706 c 0,28,29
 -645 720 -645 720 -640.5 723.5 c 128,-1,30
 -636 727 -636 727 -624 727 c 256,31,32
 -612 727 -612 727 -606.5 718.5 c 128,-1,33
 -601 710 -601 710 -601 690 c 0,34,35
 -601 685 -601 685 -603 663 c 1,36,-1
 -591 664 l 2,37,38
 -587 665 -587 665 -573 665 c 0,39,40
 -569 664 -569 664 -566 660 c 128,-1,41
 -563 656 -563 656 -563 650 c 0,42,43
 -563 641 -563 641 -569 632 c 0,44,45
 -574 625 -574 625 -580 623 c 128,-1,46
 -586 621 -586 621 -593 620 c 128,-1,47
 -600 619 -600 619 -605 618 c 2,48,-1
 -607 618 l 1,49,50
 -608 601 -608 601 -606 594 c 128,-1,51
 -604 587 -604 587 -595 576 c 0,52,53
 -580 560 -580 560 -559 521 c 0,54,0
 -536 478 -536 478 -536 449 c 0,1,2
-596 449.5 m 128,-1,56
 -589 464 -589 464 -589 481 c 0,57,58
 -589 489 -589 489 -590 493 c 0,59,60
 -596 516 -596 516 -604.5 526.5 c 128,-1,61
 -613 537 -613 537 -632 542 c 0,62,63
 -642 544 -642 544 -652.5 534 c 128,-1,64
 -663 524 -663 524 -665 510 c 0,65,66
 -668 498 -668 498 -660 480 c 128,-1,67
 -652 462 -652 462 -638.5 448.5 c 128,-1,68
 -625 435 -625 435 -614 435 c 256,69,55
 -603 435 -603 435 -596 449.5 c 128,-1,56
EndSplineSet
EndChar

StartChar: comma
Encoding: 44 44 44
Width: 0
GlyphClass: 1
Flags: W
LayerCount: 2
Fore
SplineSet
-606 512 m 128,-1,1
 -608 505 -608 505 -607 488 c 1,2,-1
 -605 488 l 2,3,4
 -600 487 -600 487 -592.5 486 c 128,-1,5
 -585 485 -585 485 -579.5 482.5 c 128,-1,6
 -574 480 -574 480 -569 474 c 0,7,8
 -563 465 -563 465 -563 456 c 0,9,10
 -563 450 -563 450 -566 446 c 128,-1,11
 -569 442 -569 442 -573 441 c 2,12,-1
 -579 441 l 2,13,14
 -587 441 -587 441 -591 442 c 2,15,-1
 -603 443 l 1,16,17
 -601 423 -601 423 -601 416 c 0,18,19
 -601 379 -601 379 -624 379 c 0,20,21
 -638 379 -638 379 -642 384 c 128,-1,22
 -646 389 -646 389 -646 408 c 0,23,24
 -646 428 -646 428 -645 441 c 1,25,-1
 -656 438 l 1,26,-1
 -669 436 l 2,27,28
 -674 436 -674 436 -677 439 c 0,29,30
 -688 447 -688 447 -689 456 c 2,31,-1
 -690 462 l 2,32,33
 -690 472 -690 472 -679 479 c 0,34,35
 -674 484 -674 484 -641 489 c 1,36,-1
 -641 499 l 2,37,38
 -641 516 -641 516 -646 517 c 0,39,40
 -672 525 -672 525 -691 545 c 128,-1,41
 -710 565 -710 565 -710 588 c 0,42,43
 -710 634 -710 634 -689 669.5 c 128,-1,44
 -668 705 -668 705 -640 716 c 0,45,46
 -613 727 -613 727 -597 727 c 0,47,48
 -588 727 -588 727 -578 722 c 0,49,50
 -536 697 -536 697 -536 657 c 0,51,52
 -536 628 -536 628 -559 585 c 0,53,54
 -580 546 -580 546 -595 530 c 0,55,0
 -604 519 -604 519 -606 512 c 128,-1,1
-652.5 572 m 128,-1,57
 -642 562 -642 562 -632 564 c 0,58,59
 -613 569 -613 569 -604.5 579.5 c 128,-1,60
 -596 590 -596 590 -590 613 c 0,61,62
 -589 617 -589 617 -589 625 c 0,63,64
 -589 643 -589 643 -596 657 c 128,-1,65
 -603 671 -603 671 -614 671 c 256,66,67
 -625 671 -625 671 -638.5 657.5 c 128,-1,68
 -652 644 -652 644 -660 626 c 128,-1,69
 -668 608 -668 608 -665 596 c 0,70,56
 -663 582 -663 582 -652.5 572 c 128,-1,57
EndSplineSet
EndChar

StartChar: semicolon
Encoding: 59 59 46
Width: 0
GlyphClass: 1
Flags: W
LayerCount: 2
Fore
SplineSet
-281 476.5 m 128,-1,1
 -278 469 -278 469 -278 453 c 0,2,3
 -278 410 -278 410 -305 389 c 128,-1,4
 -332 368 -332 368 -387 368 c 0,5,6
 -436 368 -436 368 -453 372 c 0,7,8
 -458 373 -458 373 -465 373 c 0,9,10
 -473 373 -473 373 -481 369 c 1,11,12
 -476 362 -476 362 -472 354.5 c 128,-1,13
 -468 347 -468 347 -468 340 c 0,14,15
 -468 325 -468 325 -478.5 317 c 128,-1,16
 -489 309 -489 309 -497 315 c 0,17,18
 -497 316 -497 316 -501 320.5 c 128,-1,19
 -505 325 -505 325 -508 330 c 2,20,-1
 -518 345 l 1,21,-1
 -520 344 l 1,22,-1
 -536 334 l 1,23,24
 -534 331 -534 331 -528 322 c 128,-1,25
 -522 313 -522 313 -522 303 c 0,26,27
 -522 288 -522 288 -532.5 280 c 128,-1,28
 -543 272 -543 272 -551 278 c 0,29,30
 -551 279 -551 279 -555 283.5 c 128,-1,31
 -559 288 -559 288 -562 293 c 2,32,-1
 -573 311 l 1,33,34
 -617 286 -617 286 -631 286 c 0,35,36
 -642 286 -642 286 -647 299 c 0,37,38
 -650 305 -650 305 -650 309 c 0,39,40
 -650 315 -650 315 -638 325 c 0,41,42
 -633 329 -633 329 -624.5 333.5 c 128,-1,43
 -616 338 -616 338 -608 343 c 1,44,45
 -615 348 -615 348 -617 350.5 c 128,-1,46
 -619 353 -619 353 -619 357 c 2,47,-1
 -619 362 l 2,48,49
 -619 371 -619 371 -614 377 c 0,50,51
 -606 385 -606 385 -598 385 c 0,52,53
 -593 385 -593 385 -590 384 c 0,54,55
 -583 383 -583 383 -564 366 c 1,56,-1
 -548 375 l 1,57,-1
 -552 378 l 2,58,59
 -561 384 -561 384 -563 387 c 128,-1,60
 -565 390 -565 390 -565 394 c 2,61,-1
 -565 399 l 2,62,63
 -565 408 -565 408 -560 414 c 0,64,65
 -552 422 -552 422 -544 422 c 0,66,67
 -539 422 -539 422 -536 421 c 0,68,69
 -529 420 -529 420 -504 398 c 1,70,-1
 -502 397 l 1,71,72
 -489 404 -489 404 -490 410 c 0,73,74
 -493 422 -493 422 -493 434 c 0,75,76
 -493 456 -493 456 -483.5 474.5 c 128,-1,77
 -474 493 -474 493 -458 502 c 0,78,79
 -434 514 -434 514 -388 514 c 0,80,81
 -359 514 -359 514 -332 508 c 128,-1,82
 -305 502 -305 502 -293 493 c 0,83,0
 -284 484 -284 484 -281 476.5 c 128,-1,1
-346 426.5 m 128,-1,85
 -339 438 -339 438 -339 452 c 0,86,87
 -339 463 -339 463 -355.5 470 c 128,-1,88
 -372 477 -372 477 -393 477 c 0,89,90
 -420 477 -420 477 -431 466 c 0,91,92
 -446 453 -446 453 -446 434 c 0,93,94
 -446 425 -446 425 -442 421 c 0,95,96
 -426 405 -426 405 -401 405 c 0,97,98
 -389 405 -389 405 -368 411 c 0,99,84
 -353 415 -353 415 -346 426.5 c 128,-1,85
EndSplineSet
EndChar

StartChar: exclam
Encoding: 33 33 47
Width: 0
GlyphClass: 1
Flags: W
LayerCount: 2
Fore
SplineSet
-204 253 m 0,1,2
 -200 253 -200 253 -194 256 c 256,3,4
 -188 259 -188 259 -188 265 c 0,5,6
 -188 269 -188 269 -191 276 c 0,7,8
 -206 307 -206 307 -204 354 c 1,9,-1
 -202 368 l 1,10,-1
 -180 368 l 2,11,12
 -168 368 -168 368 -162.5 369 c 128,-1,13
 -157 370 -157 370 -155 372 c 0,14,15
 -152 375 -152 375 -153 380 c 0,16,17
 -153 381 -153 381 -153 385 c 128,-1,18
 -153 389 -153 389 -171.5 390 c 128,-1,19
 -190 391 -190 391 -221 391 c 2,20,-1
 -265 391 l 1,21,-1
 -372 391 l 1,22,-1
 -376 388 l 2,23,24
 -381 381 -381 381 -381 371 c 0,25,26
 -381 364 -381 364 -378 361.5 c 128,-1,27
 -375 359 -375 359 -366 358 c 2,28,-1
 -361 358 l 2,29,30
 -356 358 -356 358 -354.5 359.5 c 128,-1,31
 -353 361 -353 361 -353 366 c 2,32,-1
 -353 369 l 1,33,-1
 -331 369 l 2,34,35
 -312 369 -312 369 -308 367 c 128,-1,36
 -304 365 -304 365 -304 357 c 0,37,38
 -304 351 -304 351 -316 289 c 0,39,40
 -320 274 -320 274 -320 265 c 0,41,42
 -319 264 -319 264 -304 264 c 0,43,44
 -293 264 -293 264 -288 266.5 c 128,-1,45
 -283 269 -283 269 -278 276 c 0,46,47
 -275 283 -275 283 -274 294 c 128,-1,48
 -273 305 -273 305 -273 324 c 0,49,50
 -271 339 -271 339 -271 359 c 2,51,-1
 -270 369 l 1,52,-1
 -247 369 l 1,53,-1
 -248 343 l 2,54,55
 -249 335 -249 335 -249 322 c 0,56,57
 -249 294 -249 294 -242 283 c 0,58,59
 -234 262 -234 262 -211 255 c 0,60,0
 -205 253 -205 253 -204 253 c 0,1,2
EndSplineSet
EndChar

StartChar: numbersign
Encoding: 35 35 48
Width: 0
GlyphClass: 1
Flags: W
LayerCount: 2
Fore
SplineSet
-280 237 m 0,1,2
 -275 237 -275 237 -273 241.5 c 128,-1,3
 -271 246 -271 246 -271 261 c 2,4,-1
 -273 309 l 1,5,-1
 -274 373 l 1,6,-1
 -239 372 l 1,7,-1
 -215 371 l 2,8,9
 -201 371 -201 371 -196 375 c 0,10,11
 -190 377 -190 377 -189 379 c 128,-1,12
 -188 381 -188 381 -190 386 c 0,13,14
 -190 393 -190 393 -196 399 c 0,15,16
 -200 402 -200 402 -206 403.5 c 128,-1,17
 -212 405 -212 405 -223 405 c 0,18,19
 -263 405 -263 405 -286 407 c 0,20,21
 -309 407 -309 407 -320 406.5 c 128,-1,22
 -331 406 -331 406 -332 405 c 0,23,24
 -335 401 -335 401 -335 396 c 0,25,26
 -335 389 -335 389 -330 384 c 0,27,28
 -325 378 -325 378 -324 368 c 128,-1,29
 -323 358 -323 358 -323 313 c 0,30,31
 -323 305 -323 305 -322.5 287 c 128,-1,32
 -322 269 -322 269 -321 257 c 128,-1,33
 -320 245 -320 245 -319 244 c 0,34,35
 -317 241 -317 241 -299 239 c 0,36,0
 -283 239 -283 239 -280 237 c 0,1,2
EndSplineSet
EndChar

StartChar: bracketleft
Encoding: 91 91 51
Width: 0
GlyphClass: 1
Flags: W
LayerCount: 2
Fore
SplineSet
-308 456.5 m 128,-1,1
 -305 449 -305 449 -305 433 c 0,2,3
 -305 390 -305 390 -332 369 c 128,-1,4
 -359 348 -359 348 -414 348 c 0,5,6
 -463 348 -463 348 -480 352 c 0,7,8
 -486 353 -486 353 -494 353 c 0,9,10
 -503 353 -503 353 -513 348 c 1,11,12
 -508 341 -508 341 -504 333.5 c 128,-1,13
 -500 326 -500 326 -500 319 c 0,14,15
 -500 304 -500 304 -510.5 296 c 128,-1,16
 -521 288 -521 288 -529 294 c 0,17,18
 -529 295 -529 295 -533 299.5 c 128,-1,19
 -537 304 -537 304 -540 309 c 2,20,-1
 -549 323 l 1,21,22
 -591 291 -591 291 -609 291 c 0,23,24
 -621 291 -621 291 -627 305 c 0,25,26
 -630 311 -630 311 -630 315 c 0,27,28
 -630 321 -630 321 -618 331 c 0,29,30
 -608 339 -608 339 -579 353 c 1,31,-1
 -584 357 l 2,32,33
 -593 363 -593 363 -595 366 c 128,-1,34
 -597 369 -597 369 -597 373 c 2,35,-1
 -597 378 l 2,36,37
 -597 387 -597 387 -592 393 c 0,38,39
 -584 401 -584 401 -576 401 c 0,40,41
 -571 401 -571 401 -568 400 c 0,42,43
 -561 399 -561 399 -536 377 c 0,44,45
 -535 377 -535 377 -533 374 c 0,46,47
 -516 385 -516 385 -517 390 c 0,48,49
 -520 402 -520 402 -520 414 c 0,50,51
 -520 436 -520 436 -510.5 454.5 c 128,-1,52
 -501 473 -501 473 -485 482 c 0,53,54
 -461 494 -461 494 -415 494 c 0,55,56
 -386 494 -386 494 -359 488 c 128,-1,57
 -332 482 -332 482 -320 473 c 0,58,0
 -311 464 -311 464 -308 456.5 c 128,-1,1
-373 406.5 m 128,-1,60
 -366 418 -366 418 -366 432 c 0,61,62
 -366 443 -366 443 -382.5 450 c 128,-1,63
 -399 457 -399 457 -420 457 c 0,64,65
 -447 457 -447 457 -458 446 c 0,66,67
 -473 433 -473 433 -473 414 c 0,68,69
 -473 405 -473 405 -469 401 c 0,70,71
 -453 385 -453 385 -428 385 c 0,72,73
 -416 385 -416 385 -395 391 c 0,74,59
 -380 395 -380 395 -373 406.5 c 128,-1,60
EndSplineSet
EndChar

StartChar: bracketright
Encoding: 93 93 52
Width: 0
GlyphClass: 1
Flags: W
LayerCount: 2
Fore
SplineSet
-475 -140 m 0,1,2
 -475 -146 -475 -146 -487 -156 c 0,3,4
 -497 -164 -497 -164 -526 -178 c 1,5,-1
 -521 -182 l 2,6,7
 -512 -188 -512 -188 -510 -191 c 128,-1,8
 -508 -194 -508 -194 -508 -198 c 2,9,-1
 -508 -203 l 2,10,11
 -508 -212 -508 -212 -513 -218 c 0,12,13
 -521 -226 -521 -226 -529 -226 c 0,14,15
 -534 -226 -534 -226 -537 -225 c 0,16,17
 -544 -224 -544 -224 -569 -202 c 0,18,19
 -571 -202 -571 -202 -572 -199 c 1,20,21
 -589 -210 -589 -210 -588 -215 c 0,22,23
 -585 -227 -585 -227 -585 -239 c 0,24,25
 -585 -261 -585 -261 -594.5 -279.5 c 128,-1,26
 -604 -298 -604 -298 -620 -307 c 0,27,28
 -644 -319 -644 -319 -690 -319 c 0,29,30
 -719 -319 -719 -319 -746 -313 c 128,-1,31
 -773 -307 -773 -307 -785 -298 c 0,32,33
 -794 -289 -794 -289 -797 -281.5 c 128,-1,34
 -800 -274 -800 -274 -800 -258 c 0,35,36
 -800 -215 -800 -215 -773 -194 c 128,-1,37
 -746 -173 -746 -173 -691 -173 c 0,38,39
 -642 -173 -642 -173 -625 -177 c 0,40,41
 -619 -178 -619 -178 -611 -178 c 0,42,43
 -602 -178 -602 -178 -592 -173 c 1,44,45
 -597 -166 -597 -166 -601 -158.5 c 128,-1,46
 -605 -151 -605 -151 -605 -144 c 0,47,48
 -605 -129 -605 -129 -594.5 -121 c 128,-1,49
 -584 -113 -584 -113 -576 -119 c 0,50,51
 -576 -120 -576 -120 -572 -124.5 c 128,-1,52
 -568 -129 -568 -129 -565 -134 c 2,53,-1
 -556 -148 l 1,54,55
 -514 -116 -514 -116 -496 -116 c 0,56,57
 -484 -116 -484 -116 -478 -130 c 0,58,0
 -475 -136 -475 -136 -475 -140 c 0,1,2
-632 -239 m 0,60,61
 -632 -230 -632 -230 -636 -226 c 0,62,63
 -652 -210 -652 -210 -677 -210 c 0,64,65
 -689 -210 -689 -210 -710 -216 c 0,66,67
 -725 -220 -725 -220 -732 -231.5 c 128,-1,68
 -739 -243 -739 -243 -739 -257 c 0,69,70
 -739 -268 -739 -268 -722.5 -275 c 128,-1,71
 -706 -282 -706 -282 -685 -282 c 0,72,73
 -658 -282 -658 -282 -647 -271 c 0,74,59
 -632 -258 -632 -258 -632 -239 c 0,60,61
EndSplineSet
EndChar

StartChar: hyphen
Encoding: 45 45 53
Width: 0
GlyphClass: 1
Flags: W
LayerCount: 2
Fore
SplineSet
-422 255 m 0,1,2
 -422 261 -422 261 -410 271 c 0,3,4
 -403 277 -403 277 -385.5 286 c 128,-1,5
 -368 295 -368 295 -350 302 c 0,6,7
 -328 312 -328 312 -318 318.5 c 128,-1,8
 -308 325 -308 325 -309 330 c 0,9,10
 -312 342 -312 342 -312 354 c 0,11,12
 -312 376 -312 376 -302.5 394.5 c 128,-1,13
 -293 413 -293 413 -277 422 c 0,14,15
 -253 434 -253 434 -207 434 c 0,16,17
 -178 434 -178 434 -151 428 c 128,-1,18
 -124 422 -124 422 -112 413 c 0,19,20
 -103 404 -103 404 -100 396.5 c 128,-1,21
 -97 389 -97 389 -97 373 c 0,22,23
 -97 330 -97 330 -124 309 c 128,-1,24
 -151 288 -151 288 -206 288 c 0,25,26
 -255 288 -255 288 -272 292 c 0,27,28
 -284 294 -284 294 -286 294 c 0,29,30
 -294 294 -294 294 -303 289 c 128,-1,31
 -312 284 -312 284 -339 264 c 0,32,33
 -386 231 -386 231 -401 231 c 0,34,35
 -413 231 -413 231 -419 245 c 0,36,0
 -422 251 -422 251 -422 255 c 0,1,2
-165 346.5 m 128,-1,38
 -158 358 -158 358 -158 372 c 0,39,40
 -158 383 -158 383 -174.5 390 c 128,-1,41
 -191 397 -191 397 -212 397 c 0,42,43
 -239 397 -239 397 -250 386 c 0,44,45
 -265 373 -265 373 -265 354 c 0,46,47
 -265 345 -265 345 -261 341 c 0,48,49
 -245 325 -245 325 -220 325 c 0,50,51
 -208 325 -208 325 -187 331 c 0,52,37
 -172 335 -172 335 -165 346.5 c 128,-1,38
EndSplineSet
EndChar

StartChar: quotesingle
Encoding: 39 39 57
Width: 0
GlyphClass: 1
Flags: W
LayerCount: 2
Fore
SplineSet
-485 -139 m 0,1,2
 -485 -145 -485 -145 -497 -155 c 0,3,4
 -502 -159 -502 -159 -510.5 -163.5 c 128,-1,5
 -519 -168 -519 -168 -527 -173 c 1,6,7
 -520 -178 -520 -178 -518 -180.5 c 128,-1,8
 -516 -183 -516 -183 -516 -187 c 2,9,-1
 -516 -192 l 2,10,11
 -516 -201 -516 -201 -521 -207 c 0,12,13
 -529 -215 -529 -215 -537 -215 c 0,14,15
 -542 -215 -542 -215 -545 -214 c 0,16,17
 -552 -213 -552 -213 -571 -196 c 1,18,-1
 -587 -205 l 1,19,-1
 -583 -208 l 2,20,21
 -574 -214 -574 -214 -572 -217 c 128,-1,22
 -570 -220 -570 -220 -570 -224 c 2,23,-1
 -570 -229 l 2,24,25
 -570 -238 -570 -238 -575 -244 c 0,26,27
 -583 -252 -583 -252 -591 -252 c 0,28,29
 -596 -252 -596 -252 -599 -251 c 0,30,31
 -606 -250 -606 -250 -631 -228 c 1,32,-1
 -633 -227 l 1,33,34
 -646 -234 -646 -234 -645 -240 c 0,35,36
 -642 -252 -642 -252 -642 -264 c 0,37,38
 -642 -286 -642 -286 -651.5 -304.5 c 128,-1,39
 -661 -323 -661 -323 -677 -332 c 0,40,41
 -701 -344 -701 -344 -747 -344 c 0,42,43
 -776 -344 -776 -344 -803 -338 c 128,-1,44
 -830 -332 -830 -332 -842 -323 c 0,45,46
 -851 -314 -851 -314 -854 -306.5 c 128,-1,47
 -857 -299 -857 -299 -857 -283 c 0,48,49
 -857 -240 -857 -240 -830 -219 c 128,-1,50
 -803 -198 -803 -198 -748 -198 c 0,51,52
 -699 -198 -699 -198 -682 -202 c 0,53,54
 -677 -203 -677 -203 -670 -203 c 0,55,56
 -662 -203 -662 -203 -654 -199 c 1,57,58
 -659 -192 -659 -192 -663 -184.5 c 128,-1,59
 -667 -177 -667 -177 -667 -170 c 0,60,61
 -667 -155 -667 -155 -656.5 -147 c 128,-1,62
 -646 -139 -646 -139 -638 -145 c 0,63,64
 -638 -146 -638 -146 -634 -150.5 c 128,-1,65
 -630 -155 -630 -155 -627 -160 c 2,66,-1
 -617 -175 l 1,67,-1
 -615 -174 l 1,68,-1
 -599 -164 l 1,69,70
 -601 -161 -601 -161 -607 -152 c 128,-1,71
 -613 -143 -613 -143 -613 -133 c 0,72,73
 -613 -118 -613 -118 -602.5 -110 c 128,-1,74
 -592 -102 -592 -102 -584 -108 c 0,75,76
 -584 -109 -584 -109 -580 -113.5 c 128,-1,77
 -576 -118 -576 -118 -573 -123 c 2,78,-1
 -562 -141 l 1,79,80
 -518 -116 -518 -116 -504 -116 c 0,81,82
 -493 -116 -493 -116 -488 -129 c 0,83,0
 -485 -135 -485 -135 -485 -139 c 0,1,2
-689 -264 m 0,85,86
 -689 -255 -689 -255 -693 -251 c 0,87,88
 -709 -235 -709 -235 -734 -235 c 0,89,90
 -746 -235 -746 -235 -767 -241 c 0,91,92
 -782 -245 -782 -245 -789 -256.5 c 128,-1,93
 -796 -268 -796 -268 -796 -282 c 0,94,95
 -796 -293 -796 -293 -779.5 -300 c 128,-1,96
 -763 -307 -763 -307 -742 -307 c 0,97,98
 -715 -307 -715 -307 -704 -296 c 0,99,84
 -689 -283 -689 -283 -689 -264 c 0,85,86
EndSplineSet
EndChar

StartChar: dollar
Encoding: 36 36 58
Width: 0
GlyphClass: 1
Flags: W
LayerCount: 2
Fore
SplineSet
-252 231 m 2,0,1
 -169 231 -169 231 -168 232 c 0,2,3
 -168 238 -168 238 -174 245 c 0,4,5
 -183 260 -183 260 -191 281 c 128,-1,6
 -199 302 -199 302 -216 357 c 0,7,8
 -233 403 -233 403 -234 405 c 0,9,10
 -237 413 -237 413 -243 413 c 256,11,12
 -249 413 -249 413 -250 409 c 2,13,14
 -250 409 -250 409 -266 372 c 2,15,-1
 -281 334 l 1,16,-1
 -309 263 l 1,17,-1
 -328 262 l 2,18,19
 -344 261 -344 261 -350 258 c 0,20,21
 -353 257 -353 257 -353 253 c 256,22,23
 -353 249 -353 249 -343 240 c 2,24,-1
 -333 231 l 1,25,-1
 -252 231 l 2,0,1
-252 272 m 1,26,-1
 -270 270 l 1,27,-1
 -270 274 l 2,28,29
 -270 278 -270 278 -257.5 306 c 128,-1,30
 -245 334 -245 334 -243 333 c 0,31,32
 -240 323 -240 323 -236.5 303 c 128,-1,33
 -233 283 -233 283 -232 273 c 1,34,-1
 -252 272 l 1,26,-1
EndSplineSet
EndChar

StartChar: equal
Encoding: 61 61 62
Width: 0
GlyphClass: 1
Flags: W
LayerCount: 2
Fore
SplineSet
-438 -145 m 0,1,2
 -438 -151 -438 -151 -450 -161 c 0,3,4
 -457 -167 -457 -167 -474.5 -176 c 128,-1,5
 -492 -185 -492 -185 -510 -192 c 0,6,7
 -532 -202 -532 -202 -542 -208.5 c 128,-1,8
 -552 -215 -552 -215 -551 -220 c 0,9,10
 -548 -232 -548 -232 -548 -244 c 0,11,12
 -548 -266 -548 -266 -557.5 -284.5 c 128,-1,13
 -567 -303 -567 -303 -583 -312 c 0,14,15
 -607 -324 -607 -324 -653 -324 c 0,16,17
 -682 -324 -682 -324 -709 -318 c 128,-1,18
 -736 -312 -736 -312 -748 -303 c 0,19,20
 -757 -294 -757 -294 -760 -286.5 c 128,-1,21
 -763 -279 -763 -279 -763 -263 c 0,22,23
 -763 -220 -763 -220 -736 -199 c 128,-1,24
 -709 -178 -709 -178 -654 -178 c 0,25,26
 -605 -178 -605 -178 -588 -182 c 0,27,28
 -576 -184 -576 -184 -574 -184 c 0,29,30
 -566 -184 -566 -184 -557 -179 c 128,-1,31
 -548 -174 -548 -174 -521 -154 c 0,32,33
 -475 -121 -475 -121 -459 -121 c 0,34,35
 -447 -121 -447 -121 -441 -135 c 0,36,0
 -438 -141 -438 -141 -438 -145 c 0,1,2
-695 -236.5 m 128,-1,38
 -702 -248 -702 -248 -702 -262 c 0,39,40
 -702 -273 -702 -273 -685.5 -280 c 128,-1,41
 -669 -287 -669 -287 -648 -287 c 0,42,43
 -621 -287 -621 -287 -610 -276 c 0,44,45
 -595 -263 -595 -263 -595 -244 c 0,46,47
 -595 -235 -595 -235 -599 -231 c 0,48,49
 -615 -215 -615 -215 -640 -215 c 0,50,51
 -652 -215 -652 -215 -673 -221 c 0,52,37
 -688 -225 -688 -225 -695 -236.5 c 128,-1,38
EndSplineSet
EndChar

StartChar: greater
Encoding: 62 62 64
Width: 0
GlyphClass: 1
Flags: W
LayerCount: 2
Fore
SplineSet
-398 -200 m 2,1,-1
 -398 -219 l 1,2,-1
 -420 -219 l 2,3,4
 -443 -219 -443 -219 -443 -221 c 2,5,-1
 -443 -222 l 2,6,7
 -443 -224 -443 -224 -439 -234 c 2,8,-1
 -434 -243 l 1,9,-1
 -414 -244 l 1,10,-1
 -394 -244 l 1,11,-1
 -394 -251 l 1,12,-1
 -395 -265 l 2,13,14
 -396 -271 -396 -271 -397 -272.5 c 128,-1,15
 -398 -274 -398 -274 -403 -275 c 0,16,17
 -430 -281 -430 -281 -441 -303 c 0,18,19
 -444 -309 -444 -309 -444.5 -314 c 128,-1,20
 -445 -319 -445 -319 -445 -327 c 256,21,22
 -445 -335 -445 -335 -444.5 -339.5 c 128,-1,23
 -444 -344 -444 -344 -441 -349 c 0,24,25
 -434 -364 -434 -364 -408 -377 c 2,26,-1
 -394 -384 l 1,27,-1
 -374 -384 l 2,28,29
 -356 -384 -356 -384 -348 -382 c 0,30,31
 -334 -378 -334 -378 -323 -360 c 128,-1,32
 -312 -342 -312 -342 -312 -325 c 0,33,34
 -312 -317 -312 -317 -315 -311 c 0,35,36
 -319 -304 -319 -304 -329 -295.5 c 128,-1,37
 -339 -287 -339 -287 -351 -281 c 2,38,-1
 -365 -273 l 1,39,-1
 -365 -245 l 1,40,-1
 -343 -245 l 2,41,42
 -333 -246 -333 -246 -326.5 -245.5 c 128,-1,43
 -320 -245 -320 -245 -320 -245 c 1,44,-1
 -320 -243 l 2,45,46
 -320 -236 -320 -236 -328 -224 c 2,47,-1
 -331 -219 l 1,48,-1
 -367 -219 l 1,49,-1
 -367 -201 l 2,50,51
 -367 -190 -367 -190 -367.5 -185.5 c 128,-1,52
 -368 -181 -368 -181 -371 -179 c 0,53,54
 -376 -176 -376 -176 -384 -176 c 0,55,56
 -394 -176 -394 -176 -396 -178 c 256,57,0
 -398 -180 -398 -180 -398 -200 c 2,1,-1
-359.5 -321.5 m 128,-1,59
 -354 -334 -354 -334 -354 -342 c 0,60,61
 -354 -346 -354 -346 -358.5 -350.5 c 128,-1,62
 -363 -355 -363 -355 -368 -357 c 2,63,-1
 -373 -358 l 2,64,65
 -376 -358 -376 -358 -383 -354 c 0,66,67
 -387 -352 -387 -352 -394 -345 c 0,68,69
 -399 -337 -399 -337 -399 -326 c 0,70,71
 -399 -312 -399 -312 -393 -303 c 0,72,73
 -390 -298 -390 -298 -387 -298 c 0,74,75
 -377 -298 -377 -298 -371 -304 c 0,76,58
 -365 -309 -365 -309 -359.5 -321.5 c 128,-1,59
EndSplineSet
EndChar

StartChar: less
Encoding: 60 60 65
Width: 0
GlyphClass: 1
Flags: W
LayerCount: 2
Fore
SplineSet
-384 -384 m 0,1,2
 -376 -384 -376 -384 -371 -381 c 0,3,4
 -368 -379 -368 -379 -367.5 -374.5 c 128,-1,5
 -367 -370 -367 -370 -367 -359 c 2,6,-1
 -367 -341 l 1,7,-1
 -331 -341 l 1,8,-1
 -328 -336 l 2,9,10
 -324 -330 -324 -330 -321.5 -323 c 128,-1,11
 -319 -316 -319 -316 -320 -315 c 2,12,13
 -320 -315 -320 -315 -326.5 -314.5 c 128,-1,14
 -333 -314 -333 -314 -343 -315 c 2,15,-1
 -365 -315 l 1,16,-1
 -365 -287 l 1,17,-1
 -351 -279 l 2,18,19
 -339 -273 -339 -273 -329 -264.5 c 128,-1,20
 -319 -256 -319 -256 -315 -249 c 0,21,22
 -312 -243 -312 -243 -312 -235 c 0,23,24
 -312 -218 -312 -218 -323 -200 c 128,-1,25
 -334 -182 -334 -182 -348 -178 c 0,26,27
 -356 -176 -356 -176 -374 -176 c 2,28,-1
 -394 -176 l 1,29,-1
 -408 -183 l 2,30,31
 -434 -196 -434 -196 -441 -211 c 0,32,33
 -444 -216 -444 -216 -444.5 -220.5 c 128,-1,34
 -445 -225 -445 -225 -445 -233 c 256,35,36
 -445 -241 -445 -241 -444.5 -246 c 128,-1,37
 -444 -251 -444 -251 -441 -257 c 0,38,39
 -430 -279 -430 -279 -403 -285 c 0,40,41
 -398 -286 -398 -286 -397 -287.5 c 128,-1,42
 -396 -289 -396 -289 -395 -295 c 2,43,-1
 -394 -309 l 1,44,-1
 -394 -316 l 1,45,-1
 -414 -316 l 1,46,-1
 -434 -317 l 1,47,-1
 -439 -326 l 2,48,49
 -444 -337 -444 -337 -443 -339 c 0,50,51
 -443 -341 -443 -341 -420 -341 c 2,52,-1
 -398 -341 l 1,53,-1
 -398 -360 l 2,54,55
 -398 -380 -398 -380 -396 -382 c 256,56,0
 -394 -384 -394 -384 -384 -384 c 0,1,2
-383 -261 m 0,58,59
 -387 -262 -387 -262 -389 -261.5 c 128,-1,60
 -391 -261 -391 -261 -393 -257 c 0,61,62
 -399 -248 -399 -248 -399 -234 c 0,63,64
 -399 -223 -399 -223 -394 -215 c 0,65,66
 -387 -208 -387 -208 -383 -206 c 0,67,68
 -376 -202 -376 -202 -373 -202 c 0,69,70
 -367 -202 -367 -202 -360.5 -207.5 c 128,-1,71
 -354 -213 -354 -213 -354 -218 c 0,72,73
 -354 -226 -354 -226 -359.5 -238.5 c 128,-1,74
 -365 -251 -365 -251 -371 -256 c 0,75,57
 -376 -261 -376 -261 -383 -261 c 0,58,59
EndSplineSet
EndChar

StartChar: asciicircum
Encoding: 94 94 66
Width: 0
GlyphClass: 1
Flags: W
LayerCount: 2
Fore
SplineSet
-326 230 m 1,0,-1
 -296 239 l 2,1,2
 -291 241 -291 241 -279 245 c 128,-1,3
 -267 249 -267 249 -260 249 c 0,4,5
 -254 249 -254 249 -247 246 c 128,-1,6
 -240 243 -240 243 -231 238 c 2,7,-1
 -220 232 l 1,8,-1
 -202 231 l 2,9,10
 -190 230 -190 230 -177 230 c 0,11,12
 -166 230 -166 230 -162 232 c 2,13,-1
 -157 236 l 2,14,15
 -158 239 -158 239 -163 245.5 c 128,-1,16
 -168 252 -168 252 -173 258 c 0,17,18
 -192 281 -192 281 -215 287 c 0,19,20
 -220 288 -220 288 -229 288 c 0,21,22
 -249 288 -249 288 -264 281 c 0,23,24
 -269 278 -269 278 -272 278 c 1,25,26
 -272 282 -272 282 -254.5 299 c 128,-1,27
 -237 316 -237 316 -219 329 c 0,28,29
 -204 341 -204 341 -190 355 c 128,-1,30
 -176 369 -176 369 -172 376 c 0,31,32
 -169 382 -169 382 -169 386 c 256,33,34
 -169 390 -169 390 -174 395 c 256,35,36
 -179 400 -179 400 -187 402 c 0,37,38
 -199 404 -199 404 -214 404 c 0,39,40
 -240 404 -240 404 -264 400 c 0,41,42
 -274 398 -274 398 -281 398 c 0,43,44
 -296 398 -296 398 -303 403 c 0,45,46
 -305 404 -305 404 -307 406.5 c 128,-1,47
 -309 409 -309 409 -310 410 c 0,48,49
 -311 415 -311 415 -315 415 c 0,50,51
 -323 415 -323 415 -333 403 c 0,52,53
 -335 401 -335 401 -337 398 c 128,-1,54
 -339 395 -339 395 -344 394 c 0,55,56
 -362 389 -362 389 -365 385 c 0,57,58
 -367 383 -367 383 -366 380 c 0,59,60
 -362 373 -362 373 -344 369 c 128,-1,61
 -326 365 -326 365 -286 361 c 1,62,-1
 -275 361 l 1,63,-1
 -286 348 l 2,64,65
 -330 295 -330 295 -338 267 c 0,66,67
 -340 257 -340 257 -340 255 c 0,68,69
 -340 246 -340 246 -332 235 c 2,70,-1
 -326 230 l 1,0,-1
EndSplineSet
EndChar

StartChar: percent
Encoding: 37 37 70
Width: 0
GlyphClass: 1
Flags: W
LayerCount: 2
Fore
SplineSet
-344.5 229 m 128,-1,1
 -342 228 -342 228 -335 228 c 0,2,3
 -321 228 -321 228 -302 236 c 0,4,5
 -284 245 -284 245 -281 259 c 0,6,7
 -279 264 -279 264 -278 264 c 2,8,-1
 -233 254 l 2,9,10
 -185 243 -185 243 -182 243 c 0,11,12
 -176 243 -176 243 -174 246 c 0,13,14
 -171 248 -171 248 -170.5 251 c 128,-1,15
 -170 254 -170 254 -170 259 c 0,16,17
 -170 272 -170 272 -176 279 c 0,18,19
 -179 282 -179 282 -188.5 284.5 c 128,-1,20
 -198 287 -198 287 -222 291 c 0,21,22
 -273 300 -273 300 -284 304 c 0,23,24
 -287 305 -287 305 -287 308 c 0,25,26
 -285 310 -285 310 -285 310 c 2,27,28
 -283 314 -283 314 -246.5 326 c 128,-1,29
 -210 338 -210 338 -201 339 c 2,30,-1
 -189 342 l 2,31,32
 -185 344 -185 344 -181.5 348 c 128,-1,33
 -178 352 -178 352 -177 356 c 2,34,-1
 -177 359 l 2,35,36
 -177 365 -177 365 -178 371 c 128,-1,37
 -179 377 -179 377 -181 380 c 0,38,39
 -182 383 -182 383 -184.5 383.5 c 128,-1,40
 -187 384 -187 384 -192 384 c 0,41,42
 -198 384 -198 384 -208.5 381 c 128,-1,43
 -219 378 -219 378 -245 369 c 2,44,-1
 -290 353 l 1,45,-1
 -292 356 l 1,46,47
 -292 366 -292 366 -289 384 c 2,48,-1
 -286 410 l 1,49,-1
 -288 412 l 2,50,51
 -291 415 -291 415 -294 415 c 2,52,-1
 -307 413 l 2,53,54
 -334 408 -334 408 -343 398 c 2,55,-1
 -348 394 l 1,56,-1
 -348 385 l 2,57,58
 -348 372 -348 372 -338 335 c 0,59,60
 -329 296 -329 296 -329 290 c 0,61,62
 -329 280 -329 280 -347 254 c 0,63,64
 -353 246 -353 246 -353 242 c 0,65,66
 -353 236 -353 236 -349 232 c 0,67,0
 -347 230 -347 230 -344.5 229 c 128,-1,1
EndSplineSet
EndChar

StartChar: at
Encoding: 64 64 71
Width: 0
GlyphClass: 1
Flags: W
LayerCount: 2
Fore
SplineSet
-268 216 m 0,1,2
 -281 216 -281 216 -284.5 217 c 128,-1,3
 -288 218 -288 218 -292 225 c 0,4,5
 -300 237 -300 237 -306 262 c 0,6,7
 -308 278 -308 278 -308 305 c 0,8,9
 -308 330 -308 330 -306 332 c 0,10,11
 -306 335 -306 335 -311 336 c 0,12,13
 -319 338 -319 338 -328 347 c 0,14,15
 -329 349 -329 349 -329 354 c 256,16,17
 -329 359 -329 359 -327 361 c 128,-1,18
 -325 363 -325 363 -318 365 c 2,19,-1
 -309 368 l 2,20,21
 -306 371 -306 371 -306 377 c 0,22,23
 -296 399 -296 399 -288 406 c 0,24,25
 -272 422 -272 422 -249 422 c 0,26,27
 -235 422 -235 422 -219 414 c 0,28,29
 -198 404 -198 404 -198 382 c 0,30,31
 -198 375 -198 375 -199 372 c 0,32,33
 -206 345 -206 345 -231 341 c 0,34,35
 -259 337 -259 337 -259 335 c 0,36,37
 -254 330 -254 330 -246 326 c 2,38,-1
 -227 309 l 2,39,40
 -221 304 -221 304 -218.5 299 c 128,-1,41
 -216 294 -216 294 -211 284 c 0,42,43
 -206 273 -206 273 -204.5 266 c 128,-1,44
 -203 259 -203 259 -204 252 c 0,45,46
 -207 239 -207 239 -216 230 c 0,47,48
 -223 223 -223 223 -243 219 c 0,49,0
 -252 216 -252 216 -268 216 c 0,1,2
-275 364.5 m 128,-1,51
 -263 365 -263 365 -253 366 c 0,52,53
 -234 369 -234 369 -231 377 c 0,54,55
 -229 379 -229 379 -229 381 c 0,56,57
 -229 382 -229 382 -233 388 c 0,58,59
 -235 390 -235 390 -237.5 390.5 c 128,-1,60
 -240 391 -240 391 -245 391 c 0,61,62
 -255 391 -255 391 -267 387 c 256,63,64
 -279 383 -279 383 -283.5 379 c 128,-1,65
 -288 375 -288 375 -289 374 c 0,66,67
 -295 368 -295 368 -292 365 c 0,68,50
 -287 364 -287 364 -275 364.5 c 128,-1,51
-264.5 252.5 m 128,-1,70
 -262 252 -262 252 -258 252 c 256,71,72
 -254 252 -254 252 -251.5 252.5 c 128,-1,73
 -249 253 -249 253 -248 255 c 0,74,75
 -245 257 -245 257 -245 260 c 0,76,77
 -245 273 -245 273 -248 280.5 c 128,-1,78
 -251 288 -251 288 -258 295 c 0,79,80
 -268 304 -268 304 -270 302 c 256,81,82
 -272 300 -272 300 -272 284 c 0,83,84
 -272 270 -272 270 -270 262 c 2,85,-1
 -268 255 l 2,86,69
 -267 253 -267 253 -264.5 252.5 c 128,-1,70
EndSplineSet
EndChar

StartChar: ampersand
Encoding: 38 38 72
Width: 0
GlyphClass: 1
Flags: W
LayerCount: 2
Fore
SplineSet
-256 242 m 0,1,2
 -252 242 -252 242 -248 246 c 0,3,4
 -240 256 -240 256 -226 289 c 0,5,6
 -221 303 -221 303 -199 336 c 0,7,8
 -188 354 -188 354 -183.5 362 c 128,-1,9
 -179 370 -179 370 -179 375 c 0,10,11
 -179 379 -179 379 -182 386 c 0,12,13
 -188 393 -188 393 -191.5 395.5 c 128,-1,14
 -195 398 -195 398 -202 398 c 2,15,-1
 -209 399 l 1,16,-1
 -217 387 l 2,17,18
 -231 368 -231 368 -242 350 c 128,-1,19
 -253 332 -253 332 -256 322 c 2,20,-1
 -258 316 l 2,21,22
 -259 315 -259 315 -264 339 c 0,23,24
 -267 354 -267 354 -281.5 374 c 128,-1,25
 -296 394 -296 394 -309 401 c 0,26,27
 -315 404 -315 404 -320 403 c 256,28,29
 -325 402 -325 402 -332 395 c 0,30,31
 -338 388 -338 388 -340.5 381 c 128,-1,32
 -343 374 -343 374 -343 360 c 0,33,34
 -344 355 -344 355 -344 349 c 0,35,36
 -344 342 -344 342 -338 340 c 0,37,38
 -326 337 -326 337 -310 325 c 0,39,40
 -301 318 -301 318 -294 310 c 128,-1,41
 -287 302 -287 302 -285 297 c 0,42,43
 -283 289 -283 289 -279 277 c 128,-1,44
 -275 265 -275 265 -271 256 c 0,45,46
 -270 254 -270 254 -267.5 250.5 c 128,-1,47
 -265 247 -265 247 -263 246 c 0,48,0
 -259 242 -259 242 -256 242 c 0,1,2
EndSplineSet
EndChar

